<svg xmlns="http://www.w3.org/2000/svg" xmlns:xlink="http://www.w3.org/1999/xlink" width="512" height="512" x="0" y="0" enable-background="new 0 0 512 512" version="1.1" viewBox="0 0 512 512" xml:space="preserve"><switch><g><g id="Layer_1"><polygon fill="none" stroke="#646464" stroke-miterlimit="10" stroke-width="24" points="492.808 265.5 374.403 470 137.597 470 19.193 265.5 137.597 61 374.403 61"/></g><g id="PLUGINS" display="none"><line x1="157" x2="158.333" y1="95.667" y2="97" fill="none" stroke="#000" stroke-miterlimit="10" display="inline"/><polygon fill="#969696" points="312.293 344.256 202.101 407.897 175.769 407.789 162.51 384.823 175.582 361.965 285.218 298.111" display="inline"/><polygon fill="#969696" points="241.293 221.28 131.101 284.922 104.769 284.814 91.509 261.848 104.582 238.988 214.218 175.135" display="inline"/><polygon fill="#C8C8C8" points="182.973 160.266 310.473 381.103 357.521 353.939 405.126 271.047 325.61 133.322 230.021 133.103" display="inline"/><polygon fill="#969696" points="244.417 198.691 307.917 308.677 331.659 294.97 355.802 253.615 316.044 184.753 268.158 184.984" display="inline"/><rect width="52" height="14" x="351.243" y="187.751" fill="#C8C8C8" display="inline" transform="matrix(-0.5 -0.866 0.866 -0.5 397.2053 618.8281)"/><rect width="52" height="14.001" x="369.429" y="177.251" fill="#C8C8C8" display="inline" transform="matrix(-0.5 -0.866 0.866 -0.5 433.5776 618.8277)"/></g><g id="OTHER" display="none"><polygon fill="#C8C8C8" points="233.886 303 211.771 264.5 233.886 226 278.115 226 300.229 264.5 278.115 303" display="inline"/><polygon fill="#C8C8C8" points="121.886 302 99.771 263.5 121.886 225 166.115 225 188.229 263.5 166.115 302" display="inline"/><polygon fill="#C8C8C8" points="344.886 302 322.771 263.5 344.886 225 389.115 225 411.229 263.5 389.115 302" display="inline"/></g><g id="DEEP" display="none"><g display="inline"><rect width="251.028" height="280.012" x="168.271" y="174" fill="none"/><path fill="#646464" d="M194.872,189.743c18.55-2.8,40.601-4.9,64.751-4.9c43.75,0,74.9,10.15,95.551,29.401 c21.001,19.25,33.251,46.551,33.251,84.702c0,38.5-11.9,70.001-33.95,91.701c-22.051,22.051-58.451,33.95-104.302,33.95 c-21.7,0-39.9-1.05-55.301-2.8V189.743z M225.322,398.347c7.7,1.4,18.9,1.75,30.801,1.75c65.101,0,100.452-36.4,100.452-100.102 c0.35-55.651-31.15-91.002-95.552-91.002c-15.75,0-27.65,1.4-35.701,3.15V398.347z"/></g><g display="inline"><rect width="251.028" height="280.012" x="153.271" y="157" fill="none"/><path fill="#7D7D96" d="M179.872,172.743c18.55-2.8,40.601-4.9,64.751-4.9c43.75,0,74.901,10.15,95.551,29.401 c21.001,19.25,33.251,46.551,33.251,84.702c0,38.5-11.9,70.001-33.95,91.701c-22.051,22.051-58.451,33.95-104.302,33.95 c-21.7,0-39.9-1.05-55.301-2.8V172.743z M210.322,381.347c7.7,1.4,18.9,1.75,30.801,1.75c65.101,0,100.452-36.4,100.452-100.102 c0.35-55.651-31.15-91.002-95.552-91.002c-15.75,0-27.65,1.4-35.701,3.15V381.347z"/></g><g display="inline"><rect width="251.028" height="280.012" x="136.705" y="139.012" fill="none"/><path fill="#C8C8C8" d="M163.305,154.755c18.55-2.8,40.601-4.9,64.751-4.9c43.75,0,74.901,10.15,95.551,29.401 c21.001,19.25,33.251,46.551,33.251,84.702c0,38.5-11.9,70.001-33.95,91.701c-22.051,22.051-58.451,33.95-104.302,33.95 c-21.7,0-39.9-1.05-55.301-2.8V154.755z M193.755,363.358c7.7,1.4,18.9,1.75,30.801,1.75c65.101,0,100.452-36.4,100.452-100.102 c0.35-55.651-31.15-91.002-95.552-91.002c-15.75,0-27.65,1.4-35.701,3.15V363.358z"/></g></g><g id="VIEW" display="none"><line x1="229" x2="282" y1="221" y2="221" fill="#4B964B" stroke="#C8C8C8" stroke-linejoin="round" stroke-miterlimit="10" stroke-width="20" display="inline"/><polygon fill="#4B4141" stroke="#C8C8C8" stroke-linejoin="round" stroke-miterlimit="10" stroke-width="20" points="139.732 333 100.968 267.001 139.732 201 217.262 201 256.027 267.001 217.262 333" display="inline"/><line x1="127" x2="103" y1="221" y2="221" fill="#4B964B" stroke="#C8C8C8" stroke-linecap="round" stroke-linejoin="round" stroke-miterlimit="10" stroke-width="20" display="inline"/><line x1="409.232" x2="386.201" y1="220.942" y2="220.945" fill="#4B964B" stroke="#C8C8C8" stroke-linecap="round" stroke-linejoin="round" stroke-miterlimit="10" stroke-width="20" display="inline"/><polygon fill="#414B41" stroke="#C8C8C8" stroke-linejoin="round" stroke-miterlimit="10" stroke-width="20" points="294.739 333 255.974 266.999 294.739 201 372.269 201 386.201 224.477 411.033 266.892 372.269 333" display="inline"/></g><g id="TOOLSET" display="none"><polygon fill="#C8C8C8" points="173.158 417 133.315 347.5 173.158 278 252.843 278 292.685 347.5 252.843 417" display="inline"/><path fill="#C8C8C8" d="M382.768,192.1L343.843,260h-79.685l-39.843-69.5l39.014-68.053 C207.853,129.64,165,177.064,165,234.5c0,62.408,50.592,113,113,113c62.408,0,113-50.592,113-113 C391,219.504,388.071,205.193,382.768,192.1z" display="inline"/></g><g id="KEYER" display="none"><path fill="#AFC8AF" d="M343.727,113H168.273L80.546,265l87.727,152h175.454l87.728-152L343.727,113z M295.346,228.494l26.943,16.083l-12.062,20.207l-26.521-15.832l-72.375,121.244l-25.955,11.914l-1.83-28.501l72.375-121.243 l-26.522-15.831l12.062-20.208l26.942,16.083c0,0-11.666-102.89,55.689-62.683C391.45,189.935,295.346,228.494,295.346,228.494z" display="inline"/></g><g id="MERGE" display="none"><polygon fill="#C8C8C8" points="184 139 379.305 139 281.652 308 86 308" display="inline"/><polygon fill="#AFAFC8" points="375.881 223 303.652 348 158.515 348 133 392 328.652 392 426.305 223" display="inline"/></g><g id="TIME_1_" display="none"><line x1="256" x2="176" y1="264" y2="208" fill="#C8C8C8" stroke="#C8C8C8" stroke-miterlimit="10" stroke-width="24" display="inline"/><line x1="256" x2="360" y1="264" y2="200" fill="#C8C8C8" stroke="#C8C8C8" stroke-miterlimit="10" stroke-width="24" display="inline"/><circle cx="256" cy="264" r="8" fill="#C8C8C8" stroke="#C8C8C8" stroke-miterlimit="10" stroke-width="11" display="inline"/><g display="inline"><g><polyline fill="none" stroke="#C8C8C8" stroke-miterlimit="10" stroke-width="28" points="187 426 166.676 426 157.135 408.512"/><line x1="130.753" x2="100.164" y1="361.253" y2="306.118" fill="none" stroke="#C8C8C8" stroke-dasharray="36.03 54.045" stroke-miterlimit="10" stroke-width="28"/><polyline fill="none" stroke="#C8C8C8" stroke-miterlimit="10" stroke-width="28" points="87.055 282.488 77.352 265 87.055 247.511"/><line x1="113.274" x2="143.863" y1="200.253" y2="145.118" fill="none" stroke="#C8C8C8" stroke-dasharray="36.03 54.045" stroke-miterlimit="10" stroke-width="28"/><polyline fill="none" stroke="#C8C8C8" stroke-miterlimit="10" stroke-width="28" points="157.135 121.489 166.676 104 187 104"/><line x1="239" x2="299" y1="104" y2="104" fill="none" stroke="#C8C8C8" stroke-dasharray="35 52" stroke-miterlimit="10" stroke-width="28"/><polyline fill="none" stroke="#C8C8C8" stroke-miterlimit="10" stroke-width="28" points="325 104 345.324 104 354.865 121.489"/><line x1="381.246" x2="411.836" y1="168.747" y2="223.882" fill="none" stroke="#C8C8C8" stroke-dasharray="36.03 54.045" stroke-miterlimit="10" stroke-width="28"/><polyline fill="none" stroke="#C8C8C8" stroke-miterlimit="10" stroke-width="28" points="424.945 247.511 434.648 265 424.945 282.488"/><line x1="398.727" x2="368.137" y1="329.747" y2="384.882" fill="none" stroke="#C8C8C8" stroke-dasharray="36.03 54.045" stroke-miterlimit="10" stroke-width="28"/><polyline fill="none" stroke="#C8C8C8" stroke-miterlimit="10" stroke-width="28" points="354.865 408.512 345.324 426 325 426"/><line x1="273" x2="213" y1="426" y2="426" fill="none" stroke="#C8C8C8" stroke-dasharray="35 52" stroke-miterlimit="10" stroke-width="28"/></g></g></g><g id="_x33_D"><polygon fill="#646464" points="172.58 410 88.159 264 172.58 118 341.421 118 425.841 264 341.421 410"/><polygon fill="#969696" points="341.421 410 425.841 264 341.421 118 255.877 264.333"/><polygon fill="#C8C8C8" points="255.877 264.333 341.421 118 173 118 88.159 264"/></g><g id="TRANSFORM" display="none"><circle cx="257" cy="264" r="96" fill="none" stroke="#969696" stroke-dasharray="60 90" stroke-miterlimit="10" stroke-width="20" display="inline"/><rect width="36" height="316" x="238" y="106" fill="#C8C8C8" display="inline"/><polygon fill="#C8C8C8" points="120 226 97.951 226 76 264 97.951 302 120 302" display="inline"/><rect width="316" height="35" x="98" y="246" fill="#C8C8C8" display="inline"/><polygon fill="#C8C8C8" points="218 400 218 422.047 256 443.998 294 422.047 294 400" display="inline"/><polygon fill="#C8C8C8" points="392 302 414.048 302 435.999 264 414.048 226 392 226" display="inline"/><polygon fill="#C8C8C8" points="294 128 294 105.951 256 84 218 105.951 218 128" display="inline"/></g><g id="FILTER" display="none"><polygon fill="#C8C8C8" points="418.352 286 405.701 264 418.352 242 443.648 242 456.299 264 443.648 286" display="inline"/><polygon fill="#C8C8C8" points="373.352 261 360.701 239 373.352 217 398.648 217 411.299 239 398.648 261" display="inline"/><polygon fill="#C8C8C8" points="373.352 211 360.701 189 373.352 167 398.648 167 411.299 189 398.648 211" display="inline"/><polygon fill="#C8C8C8" points="373.352 361 360.701 339 373.352 317 398.648 317 411.299 339 398.648 361" display="inline"/><polygon fill="#C8C8C8" points="373.352 311 360.701 289 373.352 267 398.648 267 411.299 289 398.648 311" display="inline"/><polygon fill="#C8C8C8" points="199.352 260 186.701 238 199.352 216 224.648 216 237.299 238 224.648 260" display="inline"/><polygon fill="#C8C8C8" points="199.352 210 186.701 188 199.352 166 224.648 166 237.299 188 224.648 210" display="inline"/><polygon fill="#C8C8C8" points="199.352 411 186.701 389 199.352 367 224.648 367 237.299 389 224.648 411" display="inline"/><polygon fill="#C8C8C8" points="199.352 360 186.701 338 199.352 316 224.648 316 237.299 338 224.648 360" display="inline"/><polygon fill="#C8C8C8" points="199.352 310 186.701 288 199.352 266 224.648 266 237.299 288 224.648 310" display="inline"/><polygon fill="#C8C8C8" points="199.352 160 186.701 138 199.352 116 224.648 116 237.299 138 224.648 160" display="inline"/><g display="inline"><polygon fill="#C8C8C8" points="329.352 286 316.701 264 329.352 242 354.648 242 367.299 264 354.648 286"/><polygon fill="#C8C8C8" points="329.352 236 316.701 214 329.352 192 354.648 192 367.299 214 354.648 236"/><polygon fill="#C8C8C8" points="329.352 437 316.701 415 329.352 393 354.648 393 367.299 415 354.648 437"/><polygon fill="#C8C8C8" points="329.352 386 316.701 364 329.352 342 354.648 342 367.299 364 354.648 386"/><polygon fill="#C8C8C8" points="329.352 336 316.701 314 329.352 292 354.648 292 367.299 314 354.648 336"/><polygon fill="#C8C8C8" points="329.352 186 316.701 164 329.352 142 354.648 142 367.299 164 354.648 186"/><polygon fill="#C8C8C8" points="329.352 136 316.701 114 329.352 92 354.648 92 367.299 114 354.648 136"/></g><polygon fill="#C8C8C8" points="69.351 285 56.702 263 69.351 241 94.648 241 107.299 263 94.648 285" display="inline"/><polygon fill="#C8C8C8" points="112.351 261 99.702 239 112.351 217 137.648 217 150.299 239 137.648 261" display="inline"/><polygon fill="#C8C8C8" points="112.351 211 99.702 189 112.351 167 137.648 167 150.299 189 137.648 211" display="inline"/><polygon fill="#C8C8C8" points="112.351 361 99.702 339 112.351 317 137.648 317 150.299 339 137.648 361" display="inline"/><polygon fill="#C8C8C8" points="112.351 311 99.702 289 112.351 267 137.648 267 150.299 289 137.648 311" display="inline"/><polygon fill="#C8C8C8" points="285.352 261 272.701 239 285.352 217 310.648 217 323.299 239 310.648 261" display="inline"/><polygon fill="#C8C8C8" points="285.352 211 272.701 189 285.352 167 310.648 167 323.299 189 310.648 211" display="inline"/><polygon fill="#C8C8C8" points="285.352 412 272.701 390 285.352 368 310.648 368 323.299 390 310.648 412" display="inline"/><polygon fill="#C8C8C8" points="285.352 361 272.701 339 285.352 317 310.648 317 323.299 339 310.648 361" display="inline"/><polygon fill="#C8C8C8" points="285.352 311 272.701 289 285.352 267 310.648 267 323.299 289 310.648 311" display="inline"/><polygon fill="#C8C8C8" points="285.352 161 272.701 139 285.352 117 310.648 117 323.299 139 310.648 161" display="inline"/><g display="inline"><polygon fill="#C8C8C8" points="242.352 286 229.701 264 242.352 242 267.648 242 280.299 264 267.648 286"/><polygon fill="#C8C8C8" points="242.352 236 229.701 214 242.352 192 267.648 192 280.299 214 267.648 236"/><polygon fill="#C8C8C8" points="242.352 437 229.701 415 242.352 393 267.648 393 280.299 415 267.648 437"/><polygon fill="#C8C8C8" points="242.352 386 229.701 364 242.352 342 267.648 342 280.299 364 267.648 386"/><polygon fill="#C8C8C8" points="242.352 336 229.701 314 242.352 292 267.648 292 280.299 314 267.648 336"/><polygon fill="#C8C8C8" points="242.352 186 229.701 164 242.352 142 267.648 142 280.299 164 267.648 186"/><polygon fill="#C8C8C8" points="242.352 136 229.701 114 242.352 92 267.648 92 280.299 114 267.648 136"/></g><g display="inline"><polygon fill="#C8C8C8" points="156.351 286 143.702 264 156.351 242 181.648 242 194.299 264 181.648 286"/><polygon fill="#C8C8C8" points="156.351 236 143.702 214 156.351 192 181.648 192 194.299 214 181.648 236"/><polygon fill="#C8C8C8" points="156.351 437 143.702 415 156.351 393 181.648 393 194.299 415 181.648 437"/><polygon fill="#C8C8C8" points="156.351 386 143.702 364 156.351 342 181.648 342 194.299 364 181.648 386"/><polygon fill="#C8C8C8" points="156.351 336 143.702 314 156.351 292 181.648 292 194.299 314 181.648 336"/><polygon fill="#C8C8C8" points="156.351 186 143.702 164 156.351 142 181.648 142 194.299 164 181.648 186"/><polygon fill="#C8C8C8" points="156.351 136 143.702 114 156.351 92 181.648 92 194.299 114 181.648 136"/></g></g><g id="COLOR_2" display="none"><polygon fill="#968282" points="144.841 325 89.594 229.5 144.841 134 255.339 134 310.586 229.5 255.339 325" display="inline"/><polygon fill="#828296" points="199.943 421 144.695 325.5 199.943 230 310.44 230 365.688 325.5 310.44 421" display="inline"/><polygon fill="#829682" points="255.662 325 200.414 229.5 255.662 134 366.159 134 421.406 229.5 366.159 325" display="inline"/></g><g id="CHANNEL_2" display="none"><polygon fill="#AFAFC8" points="121.235 335 390.765 335 423.085 279 88.915 279" display="inline"/><polygon fill="#C8C8C8" points="376.336 360 135.664 360 167.984 416 344.016 416" display="inline"/><polygon fill="#C8AFAF" points="375.759 168 343.727 113 168.273 113 136.241 168" display="inline"/><polygon fill="#AFC8AF" points="88.338 251 423.662 251 391.342 195 120.658 195" display="inline"/></g><g id="DRAW" display="none"><path fill="#646464" d="M152,432c-8-8,0-80,0-80s40-56,80-32c34.3,20.58-8,80-8,80 C200,416,164.735,444.734,152,432z" display="inline"/><polygon fill="#967D7D" points="226.034 322 164.067 215 226.034 108 349.966 108 411.933 215 349.966 322" display="inline"/><path fill="#C8C8C8" d="M200,352c-24-16-48,0-48,0s10.411-127.319,12.067-137C168,192,192,224,208,224 s56-24,72-8s16,64,24,72s61.966,18,45.966,34S256,376,224,400C224,400,229.769,371.846,200,352z" display="inline"/></g><g id="IMAGE" display="none"><polyline fill="#C8AFAF" points="340 410 299 410 299 258 382 258 382 334" display="inline"/><polyline fill="#96C896" points="173 118 214 118 214 273 131 273 131 196" display="inline"/><polyline fill="#96C896" points="171.301 410 87 264 256.601 264 171.301 410" display="inline"/><polyline fill="#C8AFAF" points="341.3 118 425.601 264 256 264 341.3 118" display="inline"/></g></g></switch></svg>