<svg xmlns="http://www.w3.org/2000/svg" xmlns:xlink="http://www.w3.org/1999/xlink" width="128" height="128" x="0" y="0" enable-background="new 0 0 128 128" version="1.1" viewBox="0 0 128 128" xml:space="preserve"><switch><g><g id="CENTER"><circle cx="63.974" cy="63.893" r="56.959" fill="none" stroke="#999" stroke-miterlimit="10" stroke-width="12"/><line x1="63.975" x2="64.102" y1="36.736" y2="91.051" fill="none" stroke="#999" stroke-miterlimit="10" stroke-width="12"/><line x1="36.88" x2="91.195" y1="63.957" y2="63.83" fill="none" stroke="#999" stroke-miterlimit="10" stroke-width="12"/></g><g id="ROI" display="none"><rect width="99" height="99" x="15" y="15" fill="none" stroke="#999" stroke-miterlimit="10" stroke-width="12" display="inline"/><line x1="65" x2="65" y1="18" y2="0" fill="none" stroke="#999" stroke-miterlimit="10" stroke-width="12" display="inline"/><line x1="0" x2="17" y1="64" y2="64" fill="none" stroke="#999" stroke-miterlimit="10" stroke-width="12" display="inline"/><line x1="65" x2="65" y1="128" y2="110" fill="none" stroke="#999" stroke-miterlimit="10" stroke-width="12" display="inline"/><line x1="112" x2="129" y1="65" y2="65" fill="none" stroke="#999" stroke-miterlimit="10" stroke-width="12" display="inline"/></g><g id="ROI_ON" display="none"><rect width="99" height="99" x="15" y="15" fill="none" stroke="#AF0000" stroke-miterlimit="10" stroke-width="12" display="inline"/><line x1="65" x2="65" y1="18" y2="0" fill="none" stroke="#AF0000" stroke-miterlimit="10" stroke-width="12" display="inline"/><line x1="0" x2="17" y1="64" y2="64" fill="none" stroke="#AF0000" stroke-miterlimit="10" stroke-width="12" display="inline"/><line x1="65" x2="65" y1="128" y2="110" fill="none" stroke="#AF0000" stroke-miterlimit="10" stroke-width="12" display="inline"/><line x1="112" x2="129" y1="65" y2="65" fill="none" stroke="#AF0000" stroke-miterlimit="10" stroke-width="12" display="inline"/></g><g id="REFRESH" display="none"><polygon fill="#999" points="62 108.198 62 83.274 28.762 83.269 38.382 66.698 52.033 74.553 39.409 37.164 .695 44.756 14.274 53.018 6.729 65.724 31.575 108.384" display="inline"/><polygon fill="#999" points="112.966 41.014 91.381 53.476 107.914 82.132 88.717 82.019 88.676 66.235 62.597 95.845 88.524 125.567 88.887 109.673 103.663 109.853 128.26 67.139" display="inline"/><polygon fill="#999" points="28.681 30.766 50.267 43.228 66.814 14.579 76.315 31.262 62.669 39.191 101.35 46.97 114.126 9.654 100.181 17.288 92.947 4.4 43.658 4.457" display="inline"/></g><g id="PROXY" display="none"><rect width="111" height="66" x="16" y="21" fill="none" stroke="#B3B3B3" stroke-miterlimit="10" stroke-width="6" display="inline"/><rect width="67" height="40" x="2" y="67" fill="#B3B3B3" stroke="#B3B3B3" stroke-miterlimit="10" stroke-width="6" display="inline"/></g><g id="PROXY_ON" display="none"><rect width="111" height="66" x="16" y="21" fill="none" stroke="#B3B3B3" stroke-miterlimit="10" stroke-width="6" display="inline"/><rect width="67" height="40" x="2" y="67" fill="#AF0000" stroke="#AF0000" stroke-miterlimit="10" stroke-width="6" display="inline"/></g><g id="CLIP_OFF" display="none"><g display="inline"><g><polyline fill="none" stroke="#B3B3B3" stroke-miterlimit="10" stroke-width="10" points="123 72 123 84 111 84"/><line x1="96" x2="59" y1="84" y2="84" fill="none" stroke="#B3B3B3" stroke-dasharray="30 15" stroke-miterlimit="10" stroke-width="10"/><polyline fill="none" stroke="#B3B3B3" stroke-miterlimit="10" stroke-width="10" points="52 84 40 84 40 72"/><line x1="40" x2="40" y1="60" y2="32" fill="none" stroke="#B3B3B3" stroke-dasharray="23 11" stroke-miterlimit="10" stroke-width="10"/><polyline fill="none" stroke="#B3B3B3" stroke-miterlimit="10" stroke-width="10" points="40 26 40 14 52 14"/><line x1="67" x2="104" y1="14" y2="14" fill="none" stroke="#B3B3B3" stroke-dasharray="30 15" stroke-miterlimit="10" stroke-width="10"/><polyline fill="none" stroke="#B3B3B3" stroke-miterlimit="10" stroke-width="10" points="111 14 123 14 123 26"/><line x1="123" x2="123" y1="37" y2="66" fill="none" stroke="#B3B3B3" stroke-dasharray="23 11" stroke-miterlimit="10" stroke-width="10"/></g></g><g display="inline"><g><polyline fill="none" stroke="#B3B3B3" stroke-miterlimit="10" stroke-width="10" points="123 72 123 84 111 84"/><line x1="96" x2="59" y1="84" y2="84" fill="none" stroke="#B3B3B3" stroke-dasharray="30 15" stroke-miterlimit="10" stroke-width="10"/><polyline fill="none" stroke="#B3B3B3" stroke-miterlimit="10" stroke-width="10" points="52 84 40 84 40 72"/><line x1="40" x2="40" y1="60" y2="32" fill="none" stroke="#B3B3B3" stroke-dasharray="23 11" stroke-miterlimit="10" stroke-width="10"/><polyline fill="none" stroke="#B3B3B3" stroke-miterlimit="10" stroke-width="10" points="40 26 40 14 52 14"/><line x1="67" x2="104" y1="14" y2="14" fill="none" stroke="#B3B3B3" stroke-dasharray="30 15" stroke-miterlimit="10" stroke-width="10"/><polyline fill="none" stroke="#B3B3B3" stroke-miterlimit="10" stroke-width="10" points="111 14 123 14 123 26"/><line x1="123" x2="123" y1="37" y2="66" fill="none" stroke="#B3B3B3" stroke-dasharray="23 11" stroke-miterlimit="10" stroke-width="10"/></g></g><circle cx="38.948" cy="83.363" r="37.631" fill="#FFF" display="inline"/></g><g id="CLIP_ON" display="none"><g display="inline"><path fill="#B3B3B3" d="M39,46c0,0-0.073,0-0.083,0c-0.003,0-0.006,0-0.01,0c-0.007,0-0.014,0-0.021,0c-0.004,0-0.009,0-0.013,0 c-0.006,0-0.013,0-0.019,0c-0.004,0-0.01,0-0.014,0c-0.006,0-0.012,0-0.018,0c-0.005,0-0.009,0-0.014,0s-0.011,0-0.017,0 c-0.005,0-0.01,0-0.015,0c-0.005,0-0.011,0-0.017,0c-0.005,0-0.01,0-0.015,0s-0.011,0-0.017,0c-0.005,0-0.009,0-0.015,0 s-0.011,0-0.017,0s-0.01,0-0.015,0s-0.011,0-0.016,0s-0.01,0-0.015,0c-0.006,0-0.011,0-0.017,0c-0.005,0-0.01,0-0.015,0 c-0.006,0-0.012,0-0.018,0c-0.005,0-0.009,0-0.014,0c-0.006,0-0.012,0-0.018,0c-0.004,0-0.01,0-0.014,0 c-0.006,0-0.012,0-0.019,0c-0.003,0-0.009,0-0.013,0c-0.007,0-0.013,0-0.02,0c-0.004,0-0.008,0-0.012,0 c-0.009,0-0.017,0-0.025,0c-0.002,0-0.003,0-0.006,0c-0.011,0-0.021,0-0.031,0c-0.004,0-0.009,0-0.012,0 c-0.007,0-0.013,0-0.02,0c-0.005,0-0.008,0-0.013,0c-0.006,0-0.012,0-0.019,0c-0.004,0-0.01,0-0.014,0c-0.006,0-0.012,0-0.018,0 c-0.005,0-0.009,0-0.014,0c-0.006,0-0.011,0-0.017,0c-0.005,0-0.01,0-0.015,0c-0.006,0-0.011,0-0.017,0c-0.004,0-0.01,0-0.014,0 c-0.006,0-0.011,0-0.017,0c-0.005,0-0.009,0-0.014,0c-0.006,0-0.012,0-0.018,0c-0.005,0-0.009,0-0.014,0 c-0.006,0-0.011,0-0.017,0c-0.005,0-0.01,0-0.015,0s-0.011,0-0.017,0c-0.003,0-0.011,0-0.014,0c-0.006,0-0.011,0-0.017,0 c-0.005,0-0.009,0-0.015,0s-0.011,0-0.017,0s-0.01,0-0.015,0c-0.005,0-0.011,0-0.017,0c-0.005,0-0.01,0-0.015,0 c-0.006,0-0.012,0-0.018,0s-0.009,0-0.014,0c-0.007,0-0.016,0-0.023,0c-0.002,0-0.005,0-0.008,0c-0.01,0-0.021,0-0.031,0 c-0.004,0-0.007,0-0.011,0c-0.007,0-0.014,0-0.02,0c-0.005,0-0.01,0-0.015,0c-0.005,0-0.011,0-0.017,0c-0.004,0-0.011,0-0.015,0 c-0.005,0-0.011,0-0.017,0s-0.01,0-0.015,0c-0.006,0-0.011,0-0.017,0c-0.005,0-0.01,0-0.015,0c-0.005,0-0.011,0-0.016,0 c-0.005,0-0.011,0-0.016,0c-0.005,0-0.01,0-0.016,0s-0.01,0-0.015,0s-0.011,0-0.017,0c-0.005,0-0.01,0-0.015,0 c-0.005,0-0.011,0-0.017,0c-0.005,0-0.01,0-0.015,0c-0.005,0-0.011,0-0.016,0c-0.006,0-0.009,0-0.016,0c-0.005,0-0.01,0-0.016,0 s-0.01,0-0.015,0s-0.011,0-0.017,0s-0.01,0-0.015,0c-0.006,0-0.012,0-0.017,0c-0.004,0-0.01,0-0.014,0c-0.006,0-0.012,0-0.018,0 c-0.005,0-0.009,0-0.014,0c-0.007,0-0.014,0-0.021,0c-0.004,0-0.006,0-0.01,0c-0.008,0-0.017,0-0.025,0 c-0.004,0-0.011,0-0.015,0c-0.007,0-0.015,0-0.022,0c-0.005,0-0.008,0-0.013,0c-0.006,0-0.012,0-0.018,0 c-0.005,0-0.01,0-0.015,0c-0.006,0-0.011,0-0.017,0s-0.009,0-0.015,0s-0.011,0-0.016,0s-0.01,0-0.015,0 c-0.005,0-0.011,0-0.017,0c-0.005,0-0.01,0-0.015,0c-0.005,0-0.011,0-0.016,0c-0.005,0-0.01,0-0.015,0c-0.005,0-0.011,0-0.017,0 c-0.005,0-0.009,0-0.015,0s-0.011,0-0.016,0c-0.005,0-0.01,0-0.015,0s-0.011,0-0.016,0c-0.005,0-0.01,0-0.015,0s-0.01,0-0.016,0 c-0.005,0-0.01,0-0.015,0c-0.006,0-0.011,0-0.017,0s-0.009,0-0.015,0s-0.011,0-0.017,0c-0.005,0-0.009,0-0.015,0 c-0.006,0-0.011,0-0.017,0c-0.004,0-0.01,0-0.014,0c-0.007,0-0.013,0-0.02,0c-0.003,0-0.008,0-0.011,0c-0.007,0-0.015,0-0.022,0 c-0.005,0-0.007,0-0.012,0c-0.009,0-0.019,0-0.028,0c-0.005,0-0.009,0-0.014,0c-0.006,0-0.011,0-0.017,0 c-0.006,0-0.01,0-0.016,0c-0.005,0-0.01,0-0.016,0c-0.005,0-0.011,0-0.016,0s-0.01,0-0.016,0c-0.005,0-0.01,0-0.015,0 c-0.005,0-0.01,0-0.016,0c-0.005,0-0.01,0-0.015,0c-0.005,0-0.011,0-0.017,0c-0.003,0-0.01,0-0.014,0c-0.005,0-0.012,0-0.017,0 c-0.005,0-0.01,0-0.015,0c-0.005,0-0.01,0-0.016,0c-0.005,0-0.01,0-0.015,0s-0.011,0-0.016,0s-0.01,0-0.015,0 c-0.005,0-0.011,0-0.017,0c-0.004,0-0.01,0-0.014,0c-0.006,0-0.011,0-0.017,0c-0.005,0-0.009,0-0.014,0 c-0.005,0-0.012,0-0.017,0c-0.005,0-0.009,0-0.015,0s-0.012,0-0.017,0c-0.004,0-0.01,0-0.014,0c-0.007,0-0.014,0-0.02,0 c-0.004,0-0.007,0-0.011,0c-0.007,0-0.014,0-0.021,0c-0.003,0-0.006,0-0.01,0c-0.01,0-0.021,0-0.031,0c-0.002,0-0.006,0-0.008,0 c-0.007,0-0.015,0-0.022,0c-0.005,0-0.009,0-0.014,0c-0.005,0-0.011,0-0.017,0c-0.005,0-0.011,0-0.016,0s-0.01,0-0.015,0 s-0.011,0-0.016,0s-0.01,0-0.015,0c-0.005,0-0.011,0-0.016,0c-0.005,0-0.011,0-0.016,0c-0.005,0-0.01,0-0.015,0 c-0.006,0-0.011,0-0.017,0c-0.005,0-0.01,0-0.015,0c-0.005,0-0.011,0-0.016,0c-0.005,0-0.01,0-0.015,0c-0.005,0-0.011,0-0.016,0 c-0.005,0-0.009,0-0.015,0c-0.005,0-0.011,0-0.017,0c-0.003,0-0.01,0-0.014,0c-0.005,0-0.011,0-0.017,0 c-0.005,0-0.009,0-0.014,0c-0.005,0-0.011,0-0.017,0c-0.005,0-0.01,0-0.015,0c-0.005,0-0.011,0-0.016,0c-0.005,0-0.01,0-0.015,0 c-0.006,0-0.012,0-0.018,0c-0.004,0-0.009,0-0.013,0c-0.006,0-0.014,0-0.021,0c-0.004,0-0.007,0-0.01,0 c-0.008,0-0.016-0.076-0.023-0.075c-0.007,0-0.013,0.037-0.021,0.038c-0.005,0-0.012,0.038-0.017,0.038s-0.01,0-0.015,0 c-0.005,0-0.01,0-0.016,0c-0.006,0-0.009,0-0.015,0c-0.005,0-0.01,0-0.016,0c-0.005,0-0.011,0-0.016,0c-0.004,0-0.01,0-0.014,0 c-0.005,0-0.012,0-0.017,0s-0.01,0-0.015,0s-0.01,0-0.015,0c-0.005,0-0.01,0-0.016,0c-0.005,0-0.011,0-0.016,0 c-0.005,0-0.01,0-0.015,0c-0.005,0-0.011,0-0.016,0s-0.01,0-0.015,0c-0.005,0-0.012,0-0.017,0c-0.004,0-0.01,0-0.015,0 s-0.011,0-0.016,0c-0.005,0-0.01,0-0.015,0c-0.005,0-0.011,0-0.016,0c-0.005,0-0.01-0.062-0.015-0.062s-0.011,0.03-0.016,0.031 S35.629,46,35.625,46c-0.005,0-0.011,0-0.017,0c-0.005,0-0.01-0.06-0.015-0.059c-0.005,0-0.01-0.029-0.015-0.029 s-0.011,0.043-0.017,0.043c-0.005,0-0.009,0.044-0.014,0.044s-0.01,0-0.015,0c-0.011,0-0.022,0-0.034,0 c-0.004,0-0.008,0-0.012,0c-0.005,0-0.01,0-0.015,0c-0.005,0-0.01,0-0.016,0c-0.005,0-0.01,0-0.015,0 c-0.005,0-0.01-0.052-0.015-0.051c-0.005,0-0.011-0.025-0.016-0.025s-0.01-0.012-0.015-0.012s-0.011,0.042-0.016,0.042 c-0.005,0-0.01,0.045-0.015,0.045s-0.011,0-0.016,0c-0.005,0-0.01,0-0.015,0c-0.006,0-0.009,0-0.015,0c-0.005,0-0.01,0-0.015,0 c-0.005,0-0.011-0.045-0.016-0.045c-0.005,0.001-0.011-0.022-0.016-0.021s-0.01-0.01-0.015-0.01 c-0.005,0-0.01,0.036-0.015,0.037S35.23,46,35.226,46c-0.006,0-0.011,0-0.016,0c-0.005,0-0.01,0-0.015,0 c-0.005,0-0.01,0-0.016,0s-0.01,0-0.015,0c-0.005,0-0.011-0.038-0.016-0.038c-0.005,0.001-0.009-0.019-0.014-0.018 c-0.005,0-0.012,0.025-0.017,0.026c-0.004,0-0.011,0.03-0.014,0.03c-0.006,0-0.012,0-0.018,0c-0.005,0-0.008,0-0.013,0 c-0.006,0-0.013,0-0.019,0c-0.003,0-0.008,0-0.012,0c-0.01,0-0.02-0.031-0.03-0.03c-0.005,0-0.009-0.016-0.014-0.015 c-0.006,0-0.011,0.02-0.017,0.02S34.971,46,34.964,46c-0.004,0-0.009,0-0.014,0c-0.006,0-0.01,0-0.017,0 c-0.004,0-0.009,0-0.014,0s-0.011,0-0.016,0s-0.01,0-0.014,0c-0.005,0-0.011-0.024-0.016-0.023s-0.009-0.011-0.015-0.011 c-0.006,0-0.01,0.015-0.017,0.016c-0.004,0-0.009,0.019-0.014,0.019c-0.006,0-0.01,0-0.017,0c-0.004,0-0.009,0-0.014,0 c-0.005,0-0.012,0-0.017,0c-0.004,0-0.009,0-0.014,0s-0.011-0.017-0.016-0.017c-0.005,0-0.009,0.005-0.014,0.006 C34.731,45.99,34.727,46,34.72,46c-0.004,0-0.009,0-0.013,0c-0.006,0-0.011,0-0.017,0c-0.005,0-0.01,0-0.015,0 s-0.011-0.012-0.016-0.011c-0.005,0-0.01,0.002-0.016,0.003C34.639,45.993,34.635,46,34.63,46c-0.005,0-0.011,0-0.016,0 s-0.011,0-0.016,0s-0.009,0-0.014,0s-0.011,0-0.016,0c-0.004,0-0.009,0-0.013,0c-0.01,0-0.022,0-0.032,0 c-0.005,0-0.01,0-0.015,0s-0.01,0-0.016,0c-0.005,0-0.01,0-0.015,0c-0.006,0-0.01,0-0.016,0c-0.004,0-0.01,0-0.015,0 s-0.011,0-0.016,0s-0.01,0.002-0.015,0.002s-0.01,0.001-0.015,0.002c-0.005,0-0.011,0.001-0.016,0.002s-0.01,0.001-0.015,0.002 c-0.005,0.001-0.01,0.001-0.015,0.002c-0.006,0-0.011,0.001-0.017,0.002c-0.005,0-0.009,0.001-0.014,0.002 c-0.005,0-0.012,0.001-0.017,0.002c-0.005,0-0.009,0.001-0.014,0.001c-0.005,0-0.012,0.001-0.017,0.002 c-0.004,0-0.01,0.001-0.015,0.002c-0.006,0.001-0.01,0.001-0.016,0.002c-0.005,0-0.01,0.001-0.014,0.002 c-0.006,0-0.01,0.001-0.016,0.002c-0.005,0-0.01,0.001-0.015,0.002c-0.005,0-0.01,0.001-0.015,0.002 c-0.005,0-0.01,0.001-0.016,0.002c-0.005,0-0.01,0.001-0.015,0.001c-0.005,0.001-0.01,0.001-0.016,0.002 c-0.006,0-0.009,0.001-0.015,0.001c-0.004,0.001-0.009,0.001-0.014,0.002c-0.006,0.001-0.011,0.001-0.017,0.002 c-0.003,0-0.007-0.024-0.01-0.023C34.074,46.021,34.061,46,34.047,46c-0.003,0-0.006,0-0.009,0 c-0.006,0-0.011,0.027-0.017,0.028c-0.004,0-0.009,0.014-0.013,0.014c-0.006,0.001-0.011,0.008-0.017,0.009 c-0.005,0-0.009,0.004-0.014,0.005s-0.011,0.003-0.016,0.004c-0.005,0-0.01,0.002-0.015,0.002s-0.01,0.002-0.015,0.002 c-0.005,0-0.01,0.002-0.016,0.002c-0.005,0-0.01,0.001-0.015,0.002c-0.005,0.001-0.01,0.001-0.015,0.002 c-0.006,0.001-0.01,0.001-0.016,0.002c-0.005,0-0.01,0.001-0.015,0.002c-0.005,0-0.011,0.001-0.016,0.002 c-0.005,0.001-0.009,0.001-0.014,0.002s-0.011,0.001-0.016,0.002c-0.005,0-0.01,0.001-0.015,0.002 c-0.005,0-0.011,0.001-0.016,0.002s-0.009,0.001-0.014,0.002c-0.006,0.001-0.01,0.001-0.016,0.002 c-0.005,0-0.01,0.001-0.015,0.002c-0.005,0-0.011,0.001-0.016,0.002c-0.005,0.001-0.011,0.001-0.016,0.002 c-0.005,0-0.009,0.001-0.014,0.002c-0.006,0-0.011,0.001-0.017,0.002c-0.003,0-0.01,0.001-0.014,0.001 c-0.005,0.001-0.011,0.002-0.017,0.002c-0.005,0.001-0.008,0.001-0.013,0.002c-0.006,0.001-0.012,0.002-0.018,0.002 c-0.004,0-0.009,0.001-0.013,0.002c-0.01,0.001-0.02,0.003-0.03,0.004c-0.004,0-0.007,0.001-0.011,0.001 c-0.006,0.001-0.013,0.002-0.019,0.003c-0.005,0-0.008,0.001-0.013,0.001c-0.006,0.001-0.011,0.002-0.017,0.003 c-0.004,0-0.01,0.001-0.014,0.002c-0.005,0-0.011,0.001-0.016,0.002c-0.005,0-0.01,0.001-0.015,0.002 c-0.005,0-0.011,0.001-0.016,0.002c-0.005,0-0.009,0.001-0.014,0.002c-0.005,0-0.011,0.001-0.016,0.002 c-0.005,0-0.01,0.001-0.015,0.002c-0.005,0.001-0.01,0.001-0.015,0.002c-0.005,0-0.01,0.001-0.015,0.002 c-0.005,0.001-0.01,0.002-0.015,0.002s-0.01,0.001-0.015,0.002c-0.005,0-0.011,0.001-0.016,0.002 c-0.005,0.001-0.009,0.001-0.014,0.002c-0.005,0-0.011,0.001-0.016,0.002c-0.004,0-0.01,0.001-0.014,0.002 c-0.006,0.001-0.011,0.001-0.017,0.002c-0.005,0.001-0.008,0.001-0.013,0.002c-0.006,0.001-0.011,0.002-0.017,0.003 c-0.005,0-0.008,0.001-0.013,0.002c-0.006,0.001-0.012,0.001-0.018,0.002c-0.003,0.001-0.009,0.001-0.012,0.002 c-0.006,0.001-0.012,0.002-0.018,0.003c-0.005,0-0.007,0.001-0.012,0.002c-0.006,0.001-0.013,0.002-0.019,0.003 c-0.003,0-0.008-0.092-0.011-0.091C33.12,46.09,33.11,46,33.101,46c-0.002,0-0.005,0-0.008,0c-0.008,0-0.015,0.096-0.022,0.097 c-0.004,0.001-0.007,0.048-0.011,0.048c-0.006,0.001-0.013,0.025-0.02,0.026c-0.003,0-0.008,0.013-0.012,0.014 c-0.006,0.001-0.012,0.008-0.018,0.009c-0.003,0-0.009,0.004-0.013,0.005c-0.006,0.001-0.011,0.003-0.017,0.004 c-0.005,0-0.009,0.002-0.014,0.003c-0.005,0.001-0.01,0.002-0.016,0.003c-0.005,0-0.01,0.002-0.015,0.002 c-0.005,0.001-0.01,0.002-0.016,0.002c-0.005,0.001-0.01,0.002-0.015,0.002c-0.005,0.001-0.01,0.002-0.016,0.002 c-0.005,0.001-0.009,0.002-0.014,0.002c-0.005,0.001-0.01,0.002-0.016,0.002c-0.005,0.001-0.01,0.002-0.015,0.002 c-0.005,0.001-0.01,0.002-0.015,0.002c-0.005,0.001-0.01,0.002-0.014,0.002c-0.005,0.001-0.011,0.002-0.017,0.003 c-0.004,0-0.009,0.001-0.014,0.002c-0.005,0.001-0.011,0.002-0.017,0.003c-0.005,0.001-0.008,0.001-0.013,0.002 c-0.005,0-0.012,0.002-0.017,0.002c-0.004,0.001-0.01,0.002-0.013,0.002c-0.006,0.001-0.012,0.002-0.018,0.003 c-0.003,0-0.008,0.001-0.012,0.002c-0.006,0.001-0.012,0.002-0.019,0.003c-0.004,0.001-0.007-0.128-0.012-0.127 C32.655,46.127,32.646,46,32.637,46c-0.001,0-0.001,0-0.002,0c-0.01,0-0.02,0.134-0.03,0.135c-0.003,0-0.007,0.067-0.011,0.067 c-0.006,0.001-0.013,0.035-0.019,0.036c-0.003,0-0.008,0.018-0.011,0.019c-0.006,0.001-0.012,0.01-0.019,0.011 c-0.003,0-0.009,0.006-0.012,0.007c-0.006,0.001-0.012,0.004-0.018,0.005c-0.005,0.001-0.008,0.002-0.013,0.003 c-0.005,0.001-0.012,0.002-0.017,0.003c-0.005,0.001-0.008,0.001-0.013,0.002c-0.006,0.001-0.011,0.002-0.017,0.003 c-0.003,0-0.009,0.001-0.013,0.002c-0.006,0.001-0.011,0.002-0.017,0.003c-0.005,0.001-0.008,0.001-0.013,0.002 c-0.006,0.001-0.012,0.002-0.017,0.003c-0.005,0-0.008,0.001-0.013,0.002c-0.005,0.001-0.011,0.002-0.017,0.003 c-0.005,0.001-0.009,0.002-0.014,0.002c-0.005,0.001-0.011,0.002-0.017,0.003c-0.004,0.001-0.01,0.002-0.013,0.002 c-0.006,0.001-0.012,0.002-0.018,0.003c-0.005,0-0.007,0.001-0.012,0.002c-0.006,0.001-0.013,0.002-0.019,0.003 c-0.003,0-0.007,0.001-0.011,0.002c-0.006,0.001-0.013,0.002-0.02,0.003c-0.004,0-0.007-0.166-0.011-0.166 C32.224,46.165,32.216,46,32.208,46c-0.001,0-0.005,0-0.006,0c-0.021,0-0.041,0.176-0.061,0.179 c-0.002,0.001-0.003,0.085-0.006,0.086c-0.008,0.001-0.016,0.045-0.024,0.046c-0.003,0-0.006,0.022-0.01,0.022 c-0.007,0.001-0.013,0.013-0.02,0.014c-0.004,0-0.006,0.006-0.01,0.007c-0.007,0.001-0.013,0.005-0.02,0.006 c-0.003,0.001-0.007,0.002-0.011,0.003c-0.006,0.001-0.012,0.003-0.018,0.004c-0.005,0-0.008,0.001-0.013,0.002 c-0.006,0.001-0.012,0.003-0.018,0.004c-0.003,0-0.009,0.002-0.013,0.002c-0.006,0.001-0.011,0.002-0.017,0.003 c-0.003,0.001-0.009,0.002-0.013,0.002c-0.006,0.001-0.011,0.002-0.018,0.003c-0.005,0.001-0.008,0.001-0.013,0.002 c-0.005,0.001-0.011,0.002-0.017,0.003c-0.003,0-0.009,0.001-0.013,0.002c-0.006,0.001-0.011,0.002-0.017,0.003 c-0.003,0.001-0.009,0.002-0.013,0.002c-0.006,0.001-0.012,0.002-0.018,0.003c-0.004,0.001-0.008,0.001-0.011,0.002 c-0.007,0.001-0.013,0.002-0.02,0.004c-0.003,0-0.006,0.001-0.01,0.002c-0.007,0.001-0.014,0.002-0.021,0.004 c-0.002,0-0.006,0.001-0.008,0.001c-0.008,0.001-0.016,0.003-0.023,0.004c-0.002,0-0.004-0.219-0.007-0.219 C31.71,46.208,31.68,46,31.65,46c-0.001,0-0.004,0-0.005,0c-0.008,0-0.016,0.224-0.024,0.226c-0.002,0-0.005,0.111-0.008,0.112 c-0.007,0.001-0.015,0.059-0.022,0.06c-0.002,0-0.006,0.028-0.008,0.029c-0.007,0.001-0.014,0.017-0.021,0.018 c-0.003,0-0.006,0.008-0.01,0.009c-0.006,0.001-0.014,0.006-0.02,0.007c-0.004,0-0.006,0.002-0.01,0.003 c-0.007,0.001-0.013,0.003-0.021,0.005c-0.003,0.001-0.006,0.002-0.01,0.002c-0.007,0.001-0.014,0.003-0.02,0.005 c-0.002,0-0.007,0.001-0.01,0.002c-0.007,0.001-0.014,0.002-0.02,0.004c-0.004,0-0.007,0.001-0.01,0.002 c-0.007,0.001-0.014,0.003-0.02,0.004c-0.004,0-0.006,0.001-0.01,0.002c-0.007,0.001-0.014,0.002-0.021,0.004 c-0.002,0-0.007,0.001-0.009,0.002c-0.007,0.001-0.014,0.003-0.021,0.004c-0.004,0.001-0.005,0.001-0.008,0.002 c-0.008,0.001-0.015,0.003-0.023,0.004c-0.002,0-0.004,0.244-0.007,0.245C31.303,46.754,31.294,47,31.286,47 c-0.001,0-0.004,0-0.005,0C31.251,47,31,46.77,31,46.776v0.109C31,46.887,31.17,47,31.161,47c-0.001,0-0.004,0-0.004,0 c-0.009,0-0.018-0.226-0.025-0.224c-0.002,0-0.005-0.114-0.008-0.113c-0.007,0.002-0.015-0.054-0.022-0.052 c-0.003,0-0.005-0.028-0.009-0.027c-0.007,0.001-0.014-0.012-0.021-0.01c-0.002,0-0.007,0.21-0.009,0.211 C31.055,46.785,31.048,47,31.042,47c-0.003,0-0.006,0-0.01,0c-0.007,0-0.013-0.213-0.02-0.212c-0.004,0-0.007-0.106-0.011-0.105 c-0.006,0.001-0.013-0.052-0.02-0.051c-0.002,0-0.007-0.025-0.01-0.025c-0.007,0.001-0.014-0.01-0.02-0.009 c-0.004,0.001-0.006,0.197-0.01,0.198C30.935,46.798,30.929,47,30.921,47c-0.002,0-0.006,0-0.009,0 c-0.007,0-0.014-0.2-0.021-0.199c-0.003,0.001-0.005-0.1-0.009-0.1c-0.007,0.002-0.015-0.047-0.022-0.046 c-0.002,0-0.005-0.024-0.008-0.024c-0.008,0.002-0.016-0.009-0.024-0.007c-0.001,0,0.145-0.005,0.144-0.005 C30.932,46.628,31,46.63,31,46.64v0.177C31,46.818,30.683,47,30.673,47c-0.001,0-0.002,0-0.004,0 c-0.008,0-0.017-0.173-0.025-0.171c-0.002,0.001-0.005-0.087-0.007-0.086c-0.007,0.001-0.015-0.041-0.023-0.039 c-0.002,0-0.004-0.021-0.006-0.021c-0.008,0.001-0.016-0.007-0.023-0.006c-0.002,0-0.005,0.158-0.008,0.158 C30.569,46.837,30.562,47,30.554,47c-0.002,0-0.005,0-0.007,0c-0.007,0-0.015-0.16-0.022-0.158 c-0.002,0.001-0.006-0.079-0.008-0.079c-0.008,0.001-0.016-0.038-0.023-0.036c-0.001,0-0.005,0.134-0.006,0.134 C30.48,46.863,30.472,47,30.463,47c-0.002,0-0.003,0-0.005,0c-0.008,0-0.017,0-0.025,0c-0.001,0-0.003,0-0.005,0 c-0.008,0-0.017-0.146-0.025-0.144c-0.002,0.001-0.003,0.069-0.005,0.069C30.389,46.928,30.38,47,30.371,47 c-0.001,0-0.001,0-0.002,0c-0.06,0-0.12,0-0.18,0h-0.003c-0.009,0-0.018-0.116-0.026-0.114c-0.001,0-0.004,0.055-0.005,0.055 C30.146,46.942,30.137,47,30.129,47c-0.002,0-0.002,0-0.004,0c-0.009,0-0.017,0-0.025,0c-0.001,0-0.003,0-0.005,0 c-0.008,0-0.017,0-0.025,0c-0.001,0-0.003,0-0.004,0c-0.008,0-0.017-0.102-0.025-0.1c-0.001,0-0.004,0.047-0.005,0.048 C30.026,46.95,30.017,47,30.009,47c-0.001,0-0.003,0-0.004,0c-0.009,0-0.018,0-0.026,0c-0.001,0-0.002,0-0.003,0 c-0.009,0-0.018,0-0.027,0c0,0-0.001,0-0.003,0c-0.009,0-0.019,0-0.028,0c-0.001,0,0,0-0.002,0c-0.08,0-0.16,0-0.24,0 c-0.001,0,0,0-0.001,0c-0.01,0-0.019,0-0.028,0h-0.002c-0.009,0-0.019,0-0.028,0c-0.001,0-0.001,0-0.001,0 c-0.011,0-0.02,0-0.029,0h-0.001C29.575,47,30,46.959,30,46.961v-0.023c-1,0.031-1,0.051-1,0.083v-0.014 C29,47.009,29.176,47,29.166,47c-0.001,0,0,0-0.001,0C29.155,47,29,47.014,29,47.017v0.004c-2,0.531-3.813,1.221-5.644,2.051 l4.189,9.108C31.129,56.556,35,55.733,39,55.733V46L39,46L39,46z M16.631,53.126C14.944,54.378,13,55.767,12,57.278 c0,0,0-0.149,0-0.148c0,0.007-0.188-0.13-0.194-0.13h0.106C11.905,57,12,57.312,12,57.318v0.001c0,0.053-0.21,0.107-0.261,0.161 c-0.001,0.001-0.055,0.002-0.056,0.003c-0.006,0.006-0.039,0.012-0.044,0.018c-0.001,0.001-0.015,0.001-0.016,0.002 c-0.006,0.006-0.018,0.012-0.023,0.018c-0.001,0.001-0.006,0.002-0.007,0.003c-0.005,0.006-0.013,0.012-0.019,0.018 c0,0.001-0.002,0.002-0.003,0.003c-0.005,0.006-0.012,0.012-0.017,0.018c-0.001,0-0.002,0.001-0.003,0.002 c-0.037,0.04-0.075,0.081-0.112,0.12c-0.001,0.001-0.001,0.001-0.002,0.002c-0.006,0.006-0.011,0.012-0.017,0.018 c-0.001,0.001-0.002,0.003-0.003,0.004c-0.005,0.005-0.01,0.011-0.015,0.017c-0.002,0.002-0.003,0.003-0.005,0.005 c-0.005,0.005-0.011,0.011-0.016,0.016c-0.001,0.001-0.002,0.003-0.003,0.004c-0.006,0.006-0.011,0.011-0.016,0.017 c-0.001,0.001-0.002,0.002-0.003,0.003c-0.036,0.039-0.073,0.08-0.109,0.118c-0.001,0.002-0.003,0.004-0.005,0.006 c-0.004,0.004-0.01,0.011-0.014,0.015c-0.001,0.002-0.004,0.004-0.005,0.006c-0.005,0.005-0.009,0.01-0.014,0.015 c-0.002,0.002-0.004,0.004-0.006,0.007c-0.005,0.005-0.009,0.01-0.014,0.015c-0.002,0.002-0.004,0.004-0.006,0.007 c-0.005,0.005-0.009,0.01-0.014,0.015c-0.002,0.002-0.004,0.004-0.006,0.007c-0.004,0.004-0.01,0.011-0.014,0.015 c-0.002,0.002-0.004,0.004-0.006,0.006c-0.004,0.005-0.009,0.01-0.014,0.015c-0.002,0.002-0.003,0.003-0.005,0.005 c-0.016,0.017-0.033,0.036-0.049,0.054c-0.001,0.001-0.003,0.003-0.004,0.004c-0.005,0.005-0.009,0.01-0.013,0.015 c-0.002,0.002-0.004,0.004-0.006,0.007c-0.005,0.005-0.008,0.009-0.013,0.014c-0.002,0.003-0.004,0.005-0.007,0.008 c-0.004,0.004-0.008,0.009-0.012,0.014c-0.002,0.002-0.005,0.005-0.008,0.008c-0.004,0.005-0.008,0.009-0.012,0.014 c-0.002,0.002-0.005,0.005-0.007,0.007c-0.004,0.004-0.008,0.009-0.012,0.014c-0.002,0.003-0.005,0.006-0.008,0.009 c-0.004,0.004-0.008,0.009-0.012,0.013c-0.003,0.003-0.005,0.006-0.008,0.009c-0.004,0.004-0.008,0.008-0.012,0.013 c-0.003,0.003-0.005,0.006-0.008,0.009c-0.004,0.004-0.008,0.009-0.012,0.013c-0.002,0.002-0.003,0.003-0.004,0.005 c-0.015,0.017-0.03,0.034-0.045,0.051c-0.002,0.003-0.005,0.006-0.008,0.009c-0.003,0.003-0.008,0.009-0.011,0.013 c-0.002,0.003-0.006,0.006-0.008,0.009c-0.004,0.004-0.007,0.008-0.011,0.013c-0.003,0.003-0.006,0.007-0.009,0.01 c-0.004,0.004-0.006,0.007-0.01,0.012c-0.003,0.003-0.006,0.007-0.01,0.011c-0.003,0.003-0.007,0.007-0.01,0.011 c-0.003,0.004-0.007,0.007-0.01,0.011c-0.004,0.004-0.006,0.006-0.01,0.011c-0.003,0.004-0.006,0.007-0.009,0.011 c-0.003,0.003-0.007,0.008-0.011,0.012c-0.003,0.003-0.006,0.007-0.009,0.01c-0.004,0.004-0.007,0.007-0.011,0.012 c-0.003,0.004-0.006,0.007-0.009,0.011c-0.004,0.004-0.006,0.007-0.01,0.012c-0.004,0.004-0.008,0.008-0.011,0.013 c-0.006,0.007-0.012,0.014-0.018,0.021c-0.003,0.003-0.006,0.007-0.009,0.01c-0.004,0.004-0.007,0.007-0.011,0.012 c-0.003,0.003-0.006,0.007-0.009,0.011c-0.003,0.003-0.006,0.007-0.009,0.01c-0.003,0.004-0.007,0.008-0.011,0.012 c-0.003,0.004-0.006,0.007-0.009,0.011s-0.007,0.008-0.01,0.012c-0.003,0.003-0.006,0.007-0.009,0.01 c-0.003,0.004-0.007,0.008-0.01,0.012s-0.006,0.007-0.009,0.011c-0.004,0.004-0.007,0.008-0.011,0.013 c-0.003,0.003-0.005,0.006-0.008,0.009c-0.004,0.004-0.008,0.009-0.012,0.014c-0.002,0.003-0.005,0.006-0.008,0.009 c-0.004,0.005-0.009,0.01-0.013,0.016c-0.002,0.002-0.004,0.005-0.006,0.007c-0.007,0.007-0.013,0.014-0.019,0.021l-0.001,0.001 c-0.007,0.008-0.013,0.016-0.02,0.023c0,0-0.001,0.002-0.001,0.002c-0.007,0.007-0.012,0.014-0.018,0.021 c-0.001,0.001-0.004,0.004-0.005,0.006c-0.004,0.005-0.01,0.011-0.014,0.017c-0.001,0.001-0.004,0.005-0.006,0.007 c-0.004,0.005-0.009,0.01-0.013,0.016c-0.002,0.002-0.004,0.005-0.007,0.008c-0.004,0.005-0.009,0.01-0.013,0.015 c-0.001,0.002-0.005,0.006-0.006,0.007c-0.004,0.005-0.009,0.011-0.013,0.016c-0.002,0.003-0.004,0.005-0.006,0.007 c-0.004,0.005-0.009,0.011-0.014,0.016c-0.002,0.002-0.004,0.004-0.006,0.007c-0.005,0.006-0.01,0.012-0.015,0.018 c-0.001,0.001-0.002,0.003-0.004,0.004c-0.02,0.023-0.04,0.047-0.06,0.07c-0.001,0.001-0.001,0.001-0.002,0.002 c-0.006,0.007-0.012,0.014-0.018,0.021c-0.001,0.001-0.003,0.004-0.004,0.004c-0.005,0.006-0.011,0.013-0.016,0.019 c-0.001,0.001-0.002,0.003-0.004,0.005c-0.005,0.006-0.01,0.012-0.016,0.018c-0.001,0.002-0.003,0.003-0.004,0.005 c-0.005,0.006-0.01,0.012-0.016,0.019c0,0-0.003,0.003-0.004,0.004c-0.005,0.006-0.011,0.013-0.016,0.019 c-0.001,0.001-0.003,0.003-0.004,0.004c-0.006,0.007-0.011,0.014-0.017,0.021l-0.002,0.002c-0.026,0.032-0.053,0.063-0.08,0.095 l0,0.001c-0.006,0.007-0.013,0.015-0.019,0.022c-0.001,0.001-0.001,0.001-0.002,0.002c-0.005,0.007-0.011,0.014-0.017,0.021 c-0.001,0.001-0.002,0.002-0.003,0.003c-0.005,0.006-0.011,0.013-0.016,0.02c-0.001,0.001-0.002,0.003-0.004,0.004 c-0.006,0.007-0.011,0.013-0.017,0.02c-0.001,0.001-0.002,0.002-0.002,0.003C10,59.319,9.993,59.326,9.987,59.334l0,0 c-0.04,0.048-0.08,0.096-0.119,0.144l0,0c-0.013,0.016-0.026,0.032-0.04,0.048l0,0c-1.412,1.722-2.674,3.572-3.766,5.53 l8.732,4.872c1.901-3.407,4.61-6.44,7.752-8.772L16.631,53.126L16.631,53.126z M2.937,72.632L2.937,72.632 C2.922,72.679,2.908,73,2.894,73h0.077C2.955,73,3,72.656,3,72.71v0.116C3,72.846,2.833,73,2.828,73h0.098 C2.918,73,3,72.825,3,72.852c0,0.001,0,0.002,0,0.003c0,0.026,0,0.053,0,0.079c0,0.001,0,0.001,0,0.003 c0,0.02,0,0.04-0.006,0.06l0,0C2.992,73.003,3,73.01,3,73.016c0,0.002,0,0.001,0,0.002c0,0.02,0,0.039,0,0.059 c0,0.001,0,0.002,0,0.003c0,0.007,0,0.013,0,0.019c0,0.001,0,0.001,0,0.003c0,0.019,0,0.038,0,0.058c0,0.001,0,0.002,0,0.004 c0,0.006,0.004,0.012,0.003,0.019l0,0C2.999,73.193,3,73.207,3,73.22c0,0.002,0,0.001,0,0.002c0,0.006-0.154,0.013-0.155,0.019 c-0.001,0.001,0.085,0.003,0.084,0.004C2.924,73.264,3,73.282,3,73.302c0,0.001,0,0.002,0,0.003c0,0.006,0,0.012,0,0.019 c0,0.001,0,0.002,0,0.003c0,0.019-0.175,0.037-0.18,0.056c0,0.001,0.092,0.005,0.091,0.006C2.91,73.394,3,73.399,3,73.405 c0,0.002,0,0.002,0,0.004c0,0.019-0.187,0.037-0.191,0.056c-0.001,0.002-0.089-0.24-0.09-0.238C2.717,73.232,2.671,73,2.669,73 H2.84C2.836,74,3,73.515,3,73.528c0,0.001,0,0.001,0,0.002c0,0.005-0.196,0.011-0.197,0.017 c-0.001,0.003-0.098,0.22-0.099,0.222C2.703,73.774,2.653,74,2.651,74H2.627c-0.003,0-0.018-0.189-0.021-0.178 c0,0.002-0.007-0.104-0.008-0.102c-0.001,0.006-0.006-0.043-0.007-0.037c-0.001,0.004-0.002-0.023-0.003-0.02 c-0.004,0.017-0.01,0.021-0.014,0.038c-0.001,0.004-0.002-0.001-0.003,0.002c-0.001,0.005-0.003,0.006-0.004,0.011 c-0.001,0.004,0.221,0.005,0.22,0.009C2.783,73.733,3,73.742,3,73.752c0,0.003,0,0.002,0,0.005c0,0.005-0.226,0.011-0.227,0.016 c-0.001,0.002-0.113,0.006-0.114,0.008c-0.001,0.006-0.059,0.011-0.06,0.016c0,0.003,0.204,0.005,0.204,0.008 C2.8,73.813,3,73.824,3,73.835c0,0.001,0,0.003,0,0.005c0,0.005-0.237,0.011-0.238,0.017c-0.001,0.002,0.121,0.004,0.12,0.007 C2.881,73.868,3,73.874,3,73.88v0.003c0,0.012-0.246,0.023-0.249,0.035c0,0.002-0.12,0.003-0.121,0.005 c-0.001,0.006-0.062,0.012-0.064,0.017c0,0.002-0.031,0.005-0.032,0.007C2.53,73.964,2.51,73.981,2.506,74 c0,0.002-0.009,0.004-0.01,0.007c-0.001,0.005-0.006,0.011-0.007,0.016c0,0.003-0.241,0.005-0.241,0.008 C2.245,74.042,2,74.053,2,74.064c0,0.001,0,0.001,0,0.002c0,0.005,0.234,0.011,0.233,0.016c0,0.003,0.117,0.006,0.116,0.009 c-0.001,0.005,0.057,0.01,0.056,0.016c0,0.002,0.028,0.005,0.028,0.007c-0.003,0.01,0.01,0.021,0.007,0.031 c0,0.001,0.006,0.004,0.006,0.006c-0.001,0.005,0,0.01,0,0.016c-0.001,0.002-0.221,0.006-0.222,0.008 C2.222,74.18,2,74.185,2,74.19c0,0.001,0,0.003,0,0.004c0,0.01,0.215,0.021,0.213,0.031c0,0.002,0.109,0.006,0.108,0.009 c-0.001,0.005,0.053,0.01,0.051,0.015c-0.001,0.004,0.026,0.006,0.025,0.009c-0.004,0.018,0.006,0.034,0.001,0.052 c0,0.004-0.196,0.005-0.197,0.009C2.201,74.323,2,74.328,2,74.333c0,0.003,0,0.006,0,0.009c0,0.01,0.198,0.019,0.195,0.027 c0,0.003,0.101,0.005,0.1,0.009c-0.001,0.005,0.048,0.01,0.047,0.015c0,0.003,0.023,0.007,0.023,0.009 c-0.001,0.006,0.01,0.011,0.009,0.016c0,0.003-0.183,0.006-0.183,0.009C2.188,74.435,2,74.443,2,74.452c0,0.003,0,0.007,0,0.01 c0,0.005,0.185,0.01,0.184,0.015c0,0.002,0.092,0.007,0.091,0.01c-0.001,0.005,0.045,0.01,0.044,0.015 c-0.001,0.003,0.022,0.005,0.021,0.008c-0.002,0.01,0.008,0.019,0.005,0.027c-0.001,0.004-0.17,0.006-0.171,0.01 C2.174,74.551,2,74.556,2,74.561c0,0.004,0,0.006,0,0.01c0,0.017,0.167,0.034,0.163,0.051c-0.001,0.003,0.085,0.005,0.084,0.009 c-0.001,0.005,0.042,0.01,0.041,0.016c0,0.002,0.02,0.006,0.02,0.008c-0.002,0.01-0.151,0.02-0.153,0.028 C2.154,74.685,2,74.688,2,74.689c0,0.005,0,0.01,0,0.014s0.157,0.009,0.156,0.012c-0.001,0.005,0.078,0.01,0.077,0.014 c-0.001,0.002,0.037,0.008,0.037,0.01c-0.002,0.009,0.016,0.018,0.014,0.026c0,0.002-0.138,0.007-0.139,0.01 C2.144,74.779,2,74.783,2,74.788c0,0.004,0,0.007,0,0.011c0,0.005,0,0.01,0,0.015c0,0.002,0,0.006,0,0.008 c0,0.009,0.141,0.019,0.139,0.027c-0.001,0.003,0.071,0.007,0.071,0.01c-0.001,0.005,0.034,0.01,0.033,0.015 c-0.001,0.003,0.016,0.007,0.016,0.011c-0.001,0.004,0.006,0.009,0.005,0.014s-0.128,0.009-0.129,0.014 C2.132,74.918,2,74.925,2,74.932c0,0.004,0,0.008,0,0.012s0.129,0.009,0.128,0.014c-0.001,0.003,0.063,0.008,0.062,0.012 c-0.001,0.006,0.03,0.013,0.029,0.02c-0.001,0.005,0.014,0.01,0.013,0.015s-0.113,0.009-0.114,0.013 C2.117,75.021,2,75.023,2,75.028s0,0.008,0,0.013c0,0.006,0.118,0.009,0.116,0.015c-0.001,0.006,0.058,0.012,0.056,0.018 c-0.001,0.005,0.028,0.01,0.027,0.015c-0.001,0.004-0.095,0.009-0.096,0.014C2.103,75.105,2,75.108,2,75.112 c0,0.005,0,0.009,0,0.014s0,0.009,0,0.014c0,0.007,0.106,0.014,0.104,0.021c-0.001,0.003,0.053,0.009,0.052,0.013 s0.025,0.009,0.024,0.013s0.011,0.009,0.011,0.012c-0.001,0.005,0.005,0.009,0.004,0.014c-0.001,0.004,0.001,0.011,0,0.016 c-0.001,0.006-0.001,0.013-0.002,0.02c-0.001,0.004-0.001,0.007-0.002,0.011c-0.001,0.005-0.001,0.01-0.003,0.015 c0,0.003-0.001,0.007-0.001,0.01c-0.002,0.009-0.004,0.018-0.006,0.026c-0.001,0.004-0.001,0.005-0.002,0.009 c-0.001,0.005-0.002,0.01-0.003,0.015c0,0.004-0.001,0.007-0.002,0.011s-0.002,0.009-0.003,0.014 c-0.001,0.004-0.002,0.009-0.003,0.012c-0.001,0.007-0.003,0.014-0.004,0.021c-0.001,0.004-0.002,0.009-0.003,0.014 c-0.001,0.004-0.002,0.009-0.003,0.013c-0.001,0.005-0.001,0.007-0.002,0.012s-0.002,0.009-0.003,0.014 c0,0.004-0.001,0.007-0.002,0.011c-0.001,0.009-0.003,0.017-0.005,0.024c-0.001,0.004-0.001,0.007-0.002,0.011 c-0.001,0.005-0.002,0.01-0.003,0.015c-0.001,0.003-0.001,0.007-0.002,0.011c-0.001,0.005-0.002,0.009-0.003,0.014 s-0.002,0.01-0.003,0.014c-0.001,0.008-0.003,0.015-0.004,0.021c-0.001,0.004-0.001,0.008-0.002,0.011 c-0.001,0.005-0.002,0.01-0.003,0.014c0,0.004-0.001,0.009-0.002,0.012c-0.001,0.006-0.002,0.012-0.003,0.018 c-0.001,0.006-0.002,0.012-0.004,0.018c-0.001,0.005-0.001,0.009-0.002,0.014c-0.001,0.003-0.002,0.008-0.002,0.012 c-0.001,0.004-0.002,0.009-0.003,0.014c-0.001,0.003-0.002,0.008-0.002,0.012c-0.001,0.007-0.003,0.014-0.004,0.021 c-0.001,0.005-0.002,0.01-0.003,0.014c-0.001,0.005-0.002,0.01-0.003,0.014c0,0.004-0.001,0.008-0.002,0.011 c-0.001,0.005-0.002,0.01-0.003,0.015c0,0.003-0.001,0.007-0.002,0.009c-0.002,0.01-0.004,0.019-0.006,0.027 c0,0.003-0.001,0.007-0.002,0.01c-0.001,0.005-0.002,0.01-0.003,0.015c0,0.004-0.001,0.006-0.002,0.01 c-0.001,0.005-0.002,0.01-0.003,0.015s-0.002,0.009-0.003,0.014c-0.001,0.007-0.002,0.015-0.004,0.021 c-0.001,0.003-0.002,0.008-0.002,0.012c-0.001,0.004-0.002,0.009-0.003,0.014c-0.001,0.004-0.001,0.007-0.002,0.011 c-0.001,0.007-0.003,0.014-0.004,0.021c-0.001,0.005-0.002,0.01-0.003,0.015s-0.002,0.01-0.002,0.014 c-0.001,0.004-0.002,0.009-0.002,0.012c-0.001,0.005-0.002,0.01-0.003,0.014c0,0.004-0.001,0.008-0.002,0.012 c-0.001,0.007-0.003,0.015-0.005,0.022c0,0.005-0.001,0.008-0.002,0.013c0,0.004-0.001,0.008-0.002,0.013 s-0.001,0.009-0.002,0.014c-0.001,0.004-0.002,0.008-0.002,0.013c-0.001,0.004-0.002,0.008-0.002,0.013 c-0.001,0.007-0.003,0.015-0.005,0.022c0,0.004-0.001,0.007-0.002,0.011c-0.001,0.005-0.002,0.01-0.002,0.014 c-0.001,0.005-0.001,0.008-0.002,0.013c-0.001,0.004-0.002,0.009-0.002,0.013c-0.001,0.007-0.003,0.015-0.004,0.022 C2,76.184,2,76.188,1.999,76.191c0,0.003-0.002,0.01-0.002,0.013c-0.001,0.005-0.001,0.009-0.002,0.013s-0.002,0.01-0.002,0.014 c-0.001,0.005-0.002,0.011-0.003,0.016c-0.001,0.006-0.002,0.013-0.003,0.019c0,0.004-0.001,0.009-0.002,0.013 c0,0.005-0.001,0.008-0.002,0.013c0,0.005-0.001,0.009-0.002,0.013c-0.001,0.006-0.001,0.009-0.002,0.015 c-0.001,0.005-0.002,0.011-0.003,0.017s-0.002,0.011-0.003,0.017c-0.001,0.004-0.001,0.008-0.002,0.012 c-0.001,0.005-0.002,0.01-0.002,0.015c-0.001,0.004-0.001,0.007-0.002,0.011C1.96,76.394,1.959,76.4,1.958,76.406 c0,0.005-0.001,0.01-0.002,0.015c-0.001,0.006-0.002,0.01-0.003,0.016c-0.001,0.004-0.001,0.008-0.002,0.012 c0,0.005-0.001,0.01-0.002,0.015c0,0.003-0.001,0.008-0.002,0.011c-0.001,0.008-0.003,0.017-0.004,0.023 c0,0.004-0.001,0.007-0.002,0.01c-0.001,0.005-0.002,0.011-0.003,0.016c0,0.004-0.001,0.008-0.002,0.012 c-0.001,0.005-0.002,0.011-0.003,0.016c0,0.003-0.001,0.007-0.001,0.01c-0.001,0.007-0.003,0.016-0.004,0.023 c-0.001,0.003-0.001,0.008-0.002,0.011c-0.001,0.005-0.002,0.011-0.003,0.016c0,0.003-0.001,0.007-0.002,0.011 c-0.001,0.006-0.002,0.01-0.003,0.016c-0.001,0.005-0.001,0.009-0.002,0.014c-0.001,0.007-0.002,0.013-0.003,0.02 c-0.001,0.004-0.001,0.008-0.002,0.012c-0.001,0.005-0.002,0.009-0.002,0.014c-0.001,0.004-0.001,0.009-0.002,0.013 C1.902,76.713,1.901,76.72,1.9,76.726c0,0.004-0.001,0.008-0.002,0.012c-0.001,0.006-0.002,0.012-0.003,0.018 c0,0.004-0.001,0.008-0.002,0.012c0,0.005-0.001,0.01-0.002,0.015c0,0.004-0.001,0.008-0.002,0.012 c-0.001,0.007-0.003,0.016-0.004,0.022c-0.001,0.004-0.001,0.007-0.002,0.011c-0.001,0.005-0.002,0.01-0.003,0.015 c0,0.004-0.001,0.008-0.002,0.012c0,0.005-0.002,0.011-0.002,0.016c0,0.004-0.001,0.007-0.002,0.011 c-0.001,0.007-0.003,0.016-0.004,0.023c-0.001,0.003-0.001,0.007-0.002,0.011c-0.001,0.004-0.001,0.009-0.002,0.014 c-0.001,0.004-0.001,0.009-0.002,0.013c0,0.005-0.001,0.01-0.002,0.015c0,0.005-0.001,0.01-0.002,0.015 c-0.001,0.006-0.002,0.014-0.003,0.02c0,0.003-0.001,0.008-0.001,0.011c-0.001,0.005-0.002,0.01-0.003,0.015 c0,0.004-0.001,0.008-0.001,0.012c-0.001,0.006-0.002,0.012-0.003,0.018c0,0.005-0.001,0.009-0.002,0.014 c-0.001,0.006-0.002,0.013-0.003,0.019c0,0.003-0.001,0.007-0.001,0.01c-0.001,0.005-0.002,0.012-0.003,0.017 c0,0.003-0.001,0.006-0.001,0.01c-0.001,0.007-0.003,0.017-0.004,0.023c0,0.003-0.001,0.007-0.001,0.01 c-0.001,0.005-0.002,0.012-0.003,0.017c0,0.003-0.001,0.008-0.002,0.012c-0.001,0.005-0.002,0.01-0.002,0.015 c0,0.004-0.001,0.007-0.002,0.01c-0.001,0.008-0.002,0.017-0.004,0.024c0,0.003-0.001,0.007-0.001,0.01 c-0.001,0.005-0.002,0.012-0.002,0.017c-0.001,0.003-0.001,0.007-0.002,0.011c-0.001,0.006-0.001,0.01-0.002,0.016 c-0.001,0.004-0.001,0.008-0.002,0.012c-0.001,0.007-0.002,0.015-0.004,0.022c0,0.003-0.001,0.006-0.001,0.01 c0,0.005-0.002,0.012-0.002,0.017c0,0.003-0.001,0.007-0.002,0.01c-0.001,0.008-0.002,0.014-0.003,0.021 c0,0.004-0.001,0.007-0.002,0.011c-0.001,0.006-0.002,0.013-0.003,0.019c0,0.004-0.001,0.007-0.001,0.011 c-0.001,0.005-0.002,0.012-0.003,0.017c0,0.003,0.11,0.007,0.11,0.01C1.891,77.439,2,77.447,2,77.456c0,0.002,0,0.005,0,0.008 c0,0.006-0.114,0.012-0.115,0.018c0,0.004-0.057,0.007-0.057,0.011c-0.001,0.006-0.03,0.011-0.031,0.017 c0,0.003,0.104,0.006,0.103,0.01C1.899,77.525,2,77.535,2,77.542c0,0.004,0,0.006,0,0.009c0,0.007-0.121,0.012-0.122,0.018 c0,0.004,0.062,0.007,0.062,0.01C1.939,77.586,2,77.591,2,77.598c0,0.003,0,0.005,0,0.007c0,0.009-0.125,0.016-0.127,0.024 c0,0.004-0.062,0.007-0.062,0.011c-0.001,0.005-0.033,0.011-0.033,0.016c0,0.004-0.017,0.007-0.017,0.01 c-0.001,0.008-0.009,0.014-0.011,0.021c0,0.003-0.005,0.006-0.005,0.01c-0.001,0.007-0.004,0.013-0.005,0.02 c0,0.004-0.002,0.007-0.002,0.01c0,0.005-0.002,0.013-0.003,0.018c0,0.003,0.135,0.006,0.134,0.009 C1.867,77.761,2,77.769,2,77.777c0,0.002,0,0.004,0,0.007c0,0.007,0,0.012,0,0.02c0,0.003,0,0.006,0,0.009 c0,0.007,0,0.013,0,0.019c0,0.003,0,0.006,0,0.008c0,0.008-0.144,0.018-0.145,0.024c0,0.003-0.071,0.007-0.071,0.01 c0,0.006-0.037,0.012-0.038,0.018c0,0.003,0.128,0.006,0.127,0.009C1.873,77.907,2,77.913,2,77.92c0,0.002,0,0.004,0,0.006 c0,0.009,0,0.017,0,0.025c0,0.003,0,0.006,0,0.009c0,0.006,0,0.012,0,0.018c0,0.004,0,0.006,0,0.01c0,0.008,0,0.016,0,0.024 c0,0.001,0,0.001,0,0.002c0,0.009-0.155,0.016-0.156,0.024c-0.001,0.003-0.078,0.006-0.078,0.01 c0,0.005-0.041,0.012-0.041,0.017c0,0.004,0.139,0.007,0.139,0.01C1.862,78.083,2,78.091,2,78.099c0,0.003,0,0.006,0,0.008 c0,0.006-0.162,0.013-0.162,0.019c0,0.003-0.081,0.007-0.081,0.01c-0.001,0.007-0.042,0.012-0.042,0.019 c0,0.003,0.144,0.005,0.144,0.008C1.857,78.169,2,78.179,2,78.187c0,0.003,0,0.006,0,0.009c0,0.005-0.168,0.012-0.168,0.017 c-0.001,0.004,0.085,0.008,0.084,0.011C1.916,78.229,2,78.234,2,78.241c0,0.002,0,0.005,0,0.008c0,0.008,0,0.017,0,0.024 c0,0.004,0,0.006,0,0.009c0,0.005-0.174,0.013-0.174,0.018c-0.001,0.004,0.088,0.007,0.087,0.01C1.913,78.317,2,78.323,2,78.33 c0,0.004,0,0.006,0,0.01c0,0.007-0.178,0.014-0.179,0.021c0,0.003-0.088,0.006-0.089,0.009c0,0.005-0.045,0.013-0.046,0.018 c0,0.003,0.158,0.006,0.158,0.009C1.843,78.405,2,78.414,2,78.423c0,0.001,0,0.003,0,0.005c0,0.007,0,0.014,0,0.021 c0,0.004,0,0.007,0,0.01c0,0.007,0,0.012,0,0.019c0,0.003,0,0.005,0,0.008c0,0.007,0,0.018,0,0.025c0,0.003,0,0.005,0,0.008 c0,0.007,0,0.012,0,0.018c0,0.004,0,0.008,0,0.011c0,0.006,0,0.011,0,0.018c0,0.003,0,0.006,0,0.009c0,0.008,0,0.018,0,0.024 c0,0.003,0,0.006,0,0.01c0,0.005-0.194,0.012-0.195,0.017c0,0.004,0.099,0.007,0.098,0.011C1.902,78.641,2,78.647,2,78.655 c0,0.002,0,0.004,0,0.006c0,0.008-0.198,0.016-0.199,0.022c0,0.004,0.101,0.008,0.1,0.011c0,0.005,0.1,0.013,0.1,0.018 c0,0.003,0,0.006,0,0.009c0,0.009,0,0.017,0,0.025c0,0.002,0,0.004,0,0.007c0,0.007,0,0.012,0,0.02c0,0.003,0,0.006,0,0.009 c0,0.007,0,0.012,0,0.019c0,0.003,0,0.006,0,0.009c0,0.008,0,0.018,0,0.025c0,0.002,0,0.005,0,0.008c0,0.006,0,0.012,0,0.019 c0,0.003,0,0.006,0,0.01c0,0.007,0,0.012,0,0.02c0,0.002,0,0.004,0,0.006c0,0.009,0,0.018,0,0.025c0,0.003,0,0.006,0,0.009 c0,0.007,0,0.013,0,0.019c0,0.003,0,0.006,0,0.009c0,0.008,0,0.015,0,0.021c0,0.003,0,0.006,0,0.008c0,0.008,0,0.016,0,0.022 c0,0.003,0,0.007,0,0.01c0,0.005,0,0.013,0,0.018c0,0.003,0,0.006,0,0.01c0,0.009,0,0.016,0,0.024c0,0.002,0,0.005,0,0.007 c0,0.007,0,0.013,0,0.02c0,0.003,0,0.007,0,0.01c0,0.007,0,0.013,0,0.02c0,0.002,0,0.005,0,0.007c0,0.009,0,0.017,0,0.025 c0,0.003,0,0.005,0,0.008c0,0.006,0,0.013,0,0.02c0,0.003,0,0.006,0,0.009c0,0.007,0,0.014,0,0.02c0,0.002,0,0.005,0,0.007 c0,0.009,0,0.017,0,0.025c0,0.003,0,0.007,0,0.01c0,0.005,0,0.012,0,0.017c0,0.004,0,0.007,0,0.011c0,0.008,0,0.014,0,0.021 c0,0.002,0,0.003,0,0.005c0,0.009-0.236,0.016-0.236,0.024c0,0.004,0.119,0.007,0.118,0.01C1.881,79.349,2,79.356,2,79.361 c0,0.003,0,0.006,0,0.01c0,0.009,0,0.016,0,0.024c0,0.003,0,0.005,0,0.008c0,0.006,0,0.013,0,0.019c0,0.004,0,0.007,0,0.011 c0,0.006,0,0.012,0,0.018c0,0.003,0,0.006,0,0.009c0,0.008,0,0.018,0,0.025c0,0.003,0,0.005,0,0.008c0,0.005,0,0.013,0,0.018 c0,0.004,0,0.008,0,0.012c0,0.006,0,0.011,0,0.018c0,0.002,0,0.006,0,0.008c0,0.009,0,0.017,0,0.025c0,0.003,0,0.006,0,0.01 c0,0.005,0,0.012,0,0.017c0,0.004,0,0.007,0,0.011c-1,0.006-1,0.013-1,0.02c0,0.003,0,0.006,0,0.01c0,0.007,0,0.015,0,0.021 c0,0.003,0,0.007,0,0.01c0,0.005,0,0.013,0,0.018c0,0.003,0,0.007,0,0.01c0,0.009,0,0.016,0,0.024c0,0.003,0,0.005,0,0.008 c0,0.006,0,0.013,0,0.02c0,0.003,0,0.007,0,0.01c0,0.005,0,0.013,0,0.018c0,0.004,0,0.006,0,0.009c0,0.009,0,0.017,0,0.025 c0,0.003,0,0.005,0,0.008c0,0.007,0,0.012,0,0.02c0,0.003,0,0.006,0,0.009c0,0.006,0,0.013,0,0.02c0,0.003,0,0.005,0,0.008 c0,0.009,0,0.017,0,0.025c0,0.003,0,0.006,0,0.009c0,0.005,0,0.013,0,0.018c0,0.003,0,0.007,0,0.01c0,0.008,0,0.013,0,0.021 c0,0.003,0,0.005,0,0.008c0,0.007,0,0.016,0,0.023c0,0.003,0,0.007,0,0.01c0,0.005,0,0.013,0,0.018c0,0.003,0,0.006,0,0.009 c0,0.009,0,0.018,0,0.026c0,0.002,0,0.003,0,0.005c0,0.008,0,0.014,0,0.021c0,0.003,0,0.006,0,0.009c0,0.007,0,0.013,0,0.02 c0,0.003,0,0.005,0,0.008c0,0.009,0,0.018,0,0.026c0,0.002,0,0.004,0,0.007c0,0.007,0,0.012,0,0.02c0,0.003,0,0.006,0,0.009 c0,0.008,0,0.014,0,0.021c0,0.002,0,0.005,0,0.007c0,0.009,0,0.017,0,0.025c0,0.003,0,0.006,0,0.009c0,0.006,0,0.013,0,0.019 c0,0.003,0,0.006,0,0.009c0,0.008,0,0.015,0,0.022c0,0.001,0,0.003,0,0.005c0,0.009,0,0.017,0,0.025c0,0.003,0,0.006,0,0.009 c0,0.007,0,0.012,0,0.019c0,0.003,0,0.006,0,0.009c0,0.009,0,0.018,0,0.026c0,0.001,0,0.003,0,0.004c0,0.008,0,0.015,0,0.022 c0,0.003,0,0.006,0,0.009c0,0.008,0,0.012,0,0.02c0,0.002,0,0.005,0,0.008c0,0.009,0,0.017,0,0.025c0,0.003,0,0.005,0,0.008 c0,0.007,0,0.013,0,0.021c0,0.002,0,0.005,0,0.008c0,0.007,0,0.015,0,0.022c0,0.001,0,0.003,0,0.004c0,0.009,0,0.019,0,0.027 c0,0.002,0,0.005,0,0.007c0,0.008,0,0.013,0,0.02c0,0.003,0,0.007,0,0.01c0,0.007,0,0.016,0,0.023c0,0.001,0,0.002,0,0.003 c0,0.008,0,0.018,0,0.026c0,0.002,0,0.005,0,0.008c0,0.008,0,0.012,0,0.02c0,0.003,0,0.006,0,0.009c0,0.009,0,0.017,0,0.025 c0,0.001,0,0.003,0,0.004c0,0.007,0,0.016,0,0.023c0,0.003,0,0.005,0,0.008c0,0.008,0,0.013,0,0.021c0,0.003,0,0.005,0,0.008 c0,0.009,0,0.018,0,0.026c0,0.002,0,0.004,0,0.006c0,0.007,0,0.013,0,0.021c0,0.003,0,0.006,0,0.009c0,0.008,0,0.014,0,0.021 c0,0.002,0,0.005,0,0.007c0,0.009,0,0.018,0,0.026c0,0.002,0,0.005,0,0.007c0,0.008,0,0.013,0,0.02c0,0.003,0,0.007,0,0.009 c0,0.008,0,0.015,0,0.021c0,0.002,0,0.004,0,0.006c0,0.009,0,0.018,0,0.026c0,0.003,0,0.006,0,0.009c0,0.006,0,0.012,0,0.019 c0,0.003,0,0.006,0,0.009c0,0.009,0,0.018,0,0.026c0,0.001,0,0.002,0,0.004c0,0.007,0,0.016,0,0.022c0,0.003,0,0.006,0,0.009 c0,0.008,0,0.013,0,0.021c0,0.002,0,0.004,0,0.007c0,0.009,0,0.018,0,0.026c0,0.002,0,0.004,0,0.006c0,0.008,0,0.014,0,0.021 c0,0.003,0,0.006,0,0.009c0,0.007,0,0.013,0,0.021c0,0.002,0,0.004,0,0.006c0,0.009,0,0.019,0,0.027c0,0.002,0,0.004,0,0.006 c0,0.008,0,0.014,0,0.021c0,0.003,0,0.005,0,0.008c0,0.009,0,0.017,0,0.024c0,0.001,0,0.002,0,0.002c0,0.009,0,0.019,0,0.027 c0,0.003,0,0.005,0,0.008c0,0.008,0,0.013,0,0.021c0,0.002,0,0.005,0,0.008c0,0.009,0,0.018,0,0.026c0,0.001,0,0.002,0,0.004 c0,0.007,0,0.016,0,0.022c0,0.003,0,0.006,0,0.009c0,0.007,0,0.013,0,0.02c0,0.003,0,0.006,0,0.009c0,0.009,0,0.017,0,0.025 c0,0.003,0,0.005,0,0.008c0,0.006,0,0.013,0,0.019c0,0.004,0,0.007,0,0.011c0,0.007,0,0.013,0,0.02c0,0.002,0,0.005,0,0.007 c0,0.009,0,0.018,0,0.026c0,0.002,0,0.005,0,0.007c0,0.008,0,0.014,0,0.021c0,0.002,0,0.005,0,0.007c0,0.008,0,0.017,0,0.024 c0,0.001,0,0.002,0,0.004c0,0.009,0,0.018,0,0.026c0,0.003,0,0.005,0,0.008c0,0.008,0,0.012,0,0.02c0,0.003,0,0.006,0,0.009 c0,0.009,0,0.018-0.001,0.026L1,81.698c0,0.009,0,0.018,0,0.026c0,0.002,0,0.005,0,0.008c0,0.008,0,0.014,0,0.021 c0,0.002,0,0.004,0,0.006c0,0.01,0,0.017,0,0.027c0,0.001,0,0.004,0,0.006c0,0.007,0,0.014,0,0.021c0,0.002,0,0.005,0,0.008 c0,0.008,0,0.015,0,0.022c0,0.002,0,0.003,0,0.005c0,0.01,0,0.017,0,0.027c0,0.002,0,0.004,0,0.006c0,0.008,0,0.014,0,0.021 c0,0.003,0,0.005,0,0.008c0,0.009,0,0.017,0,0.025c0,0.001,0,0.001,0,0.002c0,0.009,0,0.019,0,0.027c0,0.002,0,0.004,0,0.007 c0,0.007,0,0.014,0,0.021C1,81.997,1,82,1,82.002c0,0.009,0,0.019,0,0.027v0.001c0,0.009,0,0.018,0,0.026 c0,0.002,0,0.005,0,0.007c0,0.008,0,0.014,0,0.021c0,0.002,0,0.005,0,0.007c0,0.009,0,0.019,0,0.027c0,0.001,0,0.003,0,0.004 c0,0.008,0,0.015,0,0.022c0,0.003,0,0.007,0,0.01c0,0.007,0,0.013,0,0.021c0,0.002,0,0.004,0,0.006c0,0.009,0,0.019,0,0.027 c0,0.002,0,0.005,0,0.007c0,0.008,0,0.013,0,0.021c0,0.003,0,0.005,0,0.008c0,0.008,0,0.016,0,0.022c0,0.002,0,0.004,0,0.006 c0,0.009,0,0.018,0,0.026c0,0.002,0,0.005,0,0.008c0,0.006,0,0.013,0,0.019c0,0.004,0,0.007,0,0.01c0,0.009,0,0.017,0,0.025 c0,0.002,0,0.003,0,0.005c0,0.007,0,0.016,0,0.022c0,0.004,0,0.007,0,0.01c0,0.005,0,0.014,0,0.02c0,0.002,0,0.005,0,0.008 c0,0.009,0,0.018,0,0.026c0,0.002,0,0.004,0,0.006c0,0.008,0,0.015,0,0.021c0,0.003,0,0.006,0,0.009c0,0.008,0,0.013,0,0.021 c0,0.002,0,0.005,0,0.007c0,0.009,0,0.018,0,0.026c0,0.003,0,0.005,0,0.007c0,0.008,0,0.014,0,0.021c0,0.003,0,0.006,0,0.008 c0,0.009,0,0.017,0,0.025c0,0,0,0.001,0,0.002c0,0.009,0,0.019,0,0.027c0,0.002,0,0.005,0,0.007c0,0.008,0,0.014,0,0.021 c0,0.002,0,0.005,0,0.007c0,0.019,0,0.037,0,0.055c0,0.003,0,0.005,0,0.008c0,0.008,0,0.014,0,0.021c0,0.003,0,0.006,0,0.008 c0,0.009,0,0.019,0,0.027c0,0.001,0,0.003,0,0.005c0,0.008,0,0.015,0,0.022c0,0.002,0,0.005,0,0.008c0,0.008,0,0.014,0,0.021 c0,0.002,0,0.004,0,0.007c0,0.009,0,0.018,0,0.026c0,0.002,0,0.005,0,0.008c0,0.007,0,0.013,0,0.02c0,0.003,0,0.006,0,0.009 c0,0.008,0,0.015,0,0.022c0,0.002,0,0.003,0,0.005c0,0.009,0,0.018,0,0.026c0,0.003,0,0.006,0,0.009c0,0.008,0,0.012,0,0.02 c0,0.003,0,0.006,0,0.009c0,0.018,0,0.036,0,0.054c0,0.003,0,0.006,0,0.009c0,0.008,0,0.012,0,0.02c0,0.003,0,0.006,0,0.008 c0,0.009,0,0.018,0,0.026c0,0.003,0,0.005,0,0.008c0,0.006,0,0.014,0,0.02c0,0.004,0,0.007,0,0.01c0,0.007,0,0.014,0,0.021 c0,0.002,0,0.004,0,0.005c0,0.011,0,0.018,0,0.028c0,0.002,0,0.004,0,0.006c0,0.007,0,0.014,0,0.021c0,0.002,0,0.006,0,0.009 c0,0.007,0,0.015,0,0.022c0,0.001,0,0.003,0,0.004c0,0.009,0,0.019,0,0.027c0,0.003,0,0.005,0,0.008c0,0.008,0,0.013,0,0.021 c0,0.003,0,0.005,0,0.008c0,0.009,0,0.019,0,0.027l0,0c0,0.009,0,0.019,0,0.027c0,0.002,0,0.004,0,0.006 c0,0.009,0,0.018,0,0.026c0,0.002,0,0.003,0,0.005c0,0.007,0,0.016,0,0.023c0,0.002,0,0.004,0,0.006c0,0.007,0,0.019,0,0.025 c0,0.002,0,0.004,0,0.006c0,0.009,0,0.017,0,0.025c0,0.001,0,0.002,0,0.002c0,0.009,0,0.019,0,0.027c0,0.002,0,0.004,0,0.006 c0,0.009,0,0.019,0,0.027v0.001c0,0.009,0,0.018,0,0.026c0,0.002,0,0.004,0,0.006c0,0.009,0,0.018,0,0.026 c0,0.002,0,0.003,0,0.004c0,0.008,0,0.018,0,0.024c0,0.002,0,0.003,0,0.005c0,0.01,0,0.017,0,0.027c0,0.001,0,0.003,0,0.005 c0,0.007,0,0.017,0,0.024c0,0.001,0,0.002,0,0.004c0,0.009,0,0.018,0,0.026c0,0.002,0,0.004,0,0.006c0,0.009,0,0.018,0,0.027 v0.001c0,0.009,0,0.017,0,0.026c0,0.002,0,0.004,0,0.005c0,0.01,0,0.018,0,0.026c0,0.002,0,0.004,0,0.006 c0,0.008,0,0.016,0,0.022c0,0.002,0,0.004,0,0.006c0,0.009,0,0.018,0,0.026c0,0.002,0,0.004,0,0.006c0,0.009,0,0.017,0,0.025 c0,0,0,0.001,0,0.002c0,0.009,0,0.018,0,0.026c0,0.002,0,0.004,0,0.006c0,0.009,0,0.019,0,0.027c0,0.001,0,0.001,0,0.001 c0,0.009,0,0.019,0,0.027c0,0.001,0,0.003,0,0.005c0,0.009,0,0.018,0,0.026c0,0.002,0,0.003,0,0.004c0,0.008,0,0.017,0,0.024 c0,0.002,0,0.003,0,0.005c0,0.01,0,0.017,0,0.027c0,0.001,0,0.003,0,0.004c0,0.009,0,0.019,0,0.027v0.001 c0,0.009,0,0.019,0,0.027c0,0.002,0,0.004,0,0.005c0,0.01,0,0.019,0,0.027c0,0.001,0,0.001,0,0.002c0,0.009,0,0.018,0,0.026 c0,0.001,0,0.003,0,0.005c0,0.009,0,0.018,0,0.026c0,0.002,0,0.003,0,0.004c0,0.009,0,0.018,0,0.026c0,0.001,0,0.002,0,0.002 c0,0.01,0,0.019,0,0.027c0,0.002,0,0.004,0,0.006c0,0.018,0,0.037,0,0.055c0,0.002,0,0.003,0,0.005c0,0.009,0,0.019,0,0.027 c0,0.001,0,0.001,0,0.001c0,0.009,0,0.019,0,0.027c0,0.001,0,0.003,0,0.004c0,0.011,0,0.018,0,0.027c0,0.001,0,0.003,0,0.004 c0,0.009,0,0.018,0,0.026c0,0.001,0,0.001,0,0.002c0,0.01,0,0.018,0,0.028c0,0.001,0,0.002,0,0.004c0,0.019,0,0.038,0,0.057 c0,0.001,0,0.002,0,0.002c0,0.021,0,0.039,0,0.059c0,0.001,0,0.001,0,0.002c0,0.01,0,0.019,0,0.028c0,0.001,0,0.002,0,0.003 c0,0.021,0,0.037,0,0.058c0,0.001,0,0.002,0,0.002c0,0.02,0,0.038,0,0.058c0,0.001,0,0.002,0,0.003C1,84.84,1.174,85,1.174,85 H1.26c0.001,0,0.045,0,0.047,0h0.021c0.001,0,0.012-0.035,0.013-0.016l0,0C1.343,85.016,1.35,85,1.351,85h0.002 c0.048,1,0.141,2.146,0.273,3.174l9.919-1.252c-0.153-1.181-0.23-2.372-0.23-3.573c0-2.747,0.4-5.336,1.189-7.931L2.937,72.632 L2.937,72.632z M12.91,92.642l-9.42,3.356c1.814,5.093,4.695,9.68,8.374,13.492l7.197-6.942 C16.302,99.689,14.233,96.356,12.91,92.642L12.91,92.642z M23.561,106.321l-5.578,8.299c0.916,0.615,1.858,1.19,2.828,1.726h0 c0.091,0.051,0.183,0.346,0.274,0.396l0,0c0.008,0.004,0.016,0.258,0.024,0.258c0,0,0.001,0,0.001,0 c0.009,0-0.111-0.237-0.111-0.232v-0.123c0,0.006,0-0.052,0-0.047v-0.031c0,0.04,0,0.065,0,0.105v-0.008 c0,0.004,0.209,0.005,0.217,0.009c0.001,0.001,0.099,0.157,0.1,0.158c0.007,0.004,0.111,0.169,0.119,0.169 c0.001,0,0.002,0,0.003,0c0.007,0,0.015-0.15,0.022-0.146c0.001,0.001,0.002,0.068,0.003,0.068 c0.007,0.004,0.016,0.078,0.023,0.078h0.001c0.008,0,0.511-0.137,0.511-0.133c0,0,0,0.021,0,0.021 c0,0.03-0.371,0.111-0.312,0.111c0,0,0.001,0,0.002,0c0.007,0,0.014-0.086,0.021-0.082c0.001,0.002,0.003-0.044,0.005-0.043 c0.006,0.003,0.014-0.016,0.021-0.013c0.002,0.002,0.003,0.062,0.005,0.063c0.006,0.002,0.014,0.074,0.021,0.074 c0.002,0,0.003,0,0.005,0c0.006,0,0.014-0.066,0.021-0.062c0.002,0.002,0.003-0.033,0.005-0.032 c0.007,0.003,0.013-0.012,0.021-0.009c0.002,0.001,0.003,0.045,0.005,0.045c0.007,0.004,0.013,0.059,0.021,0.059 c0.001,0,0.002,0,0.004,0c0.041,0,0.155-0.011,0.155,0.01c0,0.001,0-0.025,0-0.025c0,0.004-0.001-0.007,0.006-0.003 c0.001,0.001-0.004-0.004-0.003-0.004c0.008,0.004,0.009,0.003,0.016,0.007c0.002,0.001,0.002,0.001,0.004,0.002 c0.006,0.003,0.012,0.006,0.019,0.009c0.002,0.001,0.004,0.001,0.006,0.002c0.006,0.004,0.012,0.007,0.019,0.01 c0.002,0.001,0.004,0.003,0.006,0.004c0.006,0.003,0.013,0.007,0.02,0.01c0.002,0.001,0.004,0.002,0.006,0.003 c0.006,0.004,0.013,0.007,0.02,0.01c0.002,0.001,0.005,0.003,0.007,0.004c0.007,0.003,0.012,0.006,0.02,0.01 c0.001,0.001,0.003,0.002,0.005,0.002c0.007,0.004,0.013,0.007,0.021,0.011c0.002,0.001,0.003,0.002,0.005,0.003 c0.033,0.016,0.064,0.032,0.098,0.048l0,0c0.008,0.004,0.014,0.007,0.021,0.011c0.001,0.001,0.003,0.002,0.005,0.003 c0.006,0.003,0.012,0.006,0.018,0.009c0.003,0.002,0.006,0.003,0.009,0.005c0.005,0.002,0.012,0.005,0.017,0.008 c0.003,0.002,0.006,0.003,0.009,0.005c0.005,0.003,0.011,0.006,0.017,0.008c0.003,0.002,0.007,0.004,0.01,0.005 c0.005,0.003,0.011,0.006,0.016,0.008c0.004,0.002,0.007,0.004,0.011,0.006c0.005,0.003,0.01,0.005,0.016,0.008 c0.003,0.001,0.008,0.004,0.011,0.005c0.005,0.003,0.01,0.005,0.015,0.008c0.004,0.002,0.007,0.003,0.011,0.005 c0.005,0.003,0.011,0.006,0.016,0.008c0.004,0.002,0.007,0.004,0.011,0.006c0.005,0.002,0.01,0.005,0.016,0.008 c0.004,0.001,0.008,0.003,0.011,0.005c0.005,0.003,0.01,0.005,0.016,0.008c0.003,0.002,0.008,0.004,0.011,0.005 c0.011,0.006,0.021,0.011,0.031,0.016c0.003,0.001,0.006,0.003,0.01,0.005c0.005,0.002,0.009,0.004,0.015,0.007 c0.004,0.002,0.008,0.004,0.012,0.006c0.004,0.002,0.009,0.005,0.013,0.007c0.005,0.002,0.009,0.004,0.014,0.006 s0.01,0.005,0.014,0.007c0.004,0.002,0.008,0.004,0.012,0.006c0.005,0.003,0.009,0.005,0.015,0.008 c0.004,0.002,0.008,0.003,0.012,0.006c0.005,0.002,0.01,0.004,0.015,0.007c0.004,0.002,0.008,0.004,0.012,0.006 c0.004,0.002,0.01,0.005,0.014,0.007c0.004,0.002,0.009,0.004,0.013,0.006c0.005,0.003,0.009,0.004,0.014,0.007 c0.004,0.002,0.008,0.004,0.012,0.006c0.004,0.002,0.01,0.005,0.015,0.007c0.004,0.002,0.008,0.004,0.013,0.006 s0.01,0.005,0.014,0.007c0.005,0.002,0.01,0.005,0.015,0.007c0.003,0.002,0.008,0.004,0.012,0.006 c0.005,0.003,0.011,0.005,0.017,0.008c0.003,0.002,0.007,0.004,0.01,0.005c0.009,0.004,0.018,0.009,0.026,0.013 c0.004,0.002,0.008,0.004,0.012,0.006c0.005,0.002,0.01,0.004,0.015,0.007c0.004,0.002,0.009,0.004,0.013,0.006 c0.005,0.003,0.009,0.005,0.014,0.007c0.004,0.002,0.008,0.004,0.013,0.006s0.009,0.005,0.014,0.007 c0.004,0.002,0.008,0.004,0.013,0.006c0.005,0.002,0.01,0.005,0.015,0.007c0.003,0.002,0.009,0.005,0.013,0.006 c0.004,0.002,0.009,0.005,0.014,0.007c0.004,0.002,0.008,0.004,0.013,0.006c0.005,0.002,0.01,0.005,0.015,0.007 c0.004,0.002,0.007,0.004,0.012,0.006c0.005,0.002,0.01,0.005,0.015,0.007c0.003,0.002,0.009,0.004,0.012,0.006 c0.005,0.002,0.011,0.005,0.016,0.007c0.004,0.002,0.007,0.004,0.011,0.006c0.005,0.002,0.011,0.005,0.016,0.007 c0.003,0.002,0.008,0.004,0.012,0.006c0.005,0.002,0.011,0.005,0.017,0.008c0.003,0.001,0.007,0.003,0.01,0.004 c0.018,0.009,0.036,0.018,0.055,0.025c0.002,0.001,0.004,0.002,0.006,0.003c0.007,0.003,0.014,0.007,0.021,0.01 c0.003,0.001,0.006,0.003,0.009,0.004c0.006,0.003,0.012,0.006,0.018,0.009c0.003,0.001,0.007,0.003,0.01,0.004 c0.006,0.003,0.011,0.006,0.017,0.009c0.003,0.001,0.007,0.003,0.011,0.005c0.005,0.002,0.011,0.005,0.017,0.007 c0.003,0.002,0.007,0.004,0.011,0.005c0.005,0.003,0.011,0.005,0.017,0.008c0.004,0.002,0.007,0.003,0.011,0.005 c0.005,0.003,0.011,0.005,0.016,0.008c0.003,0.001,0.007,0.003,0.011,0.005c0.006,0.003,0.012,0.005,0.018,0.008 c0.002,0.001,0.007,0.003,0.009,0.004c0.007,0.004,0.014,0.007,0.021,0.01c0.002,0.001,0.004,0.002,0.006,0.003 c0.007,0.003,0.015,0.007,0.022,0.01c0.002,0.001,0.004,0.002,0.006,0.003c0.028,0.013,0.056,0.024,0.083,0.037 c0.001,0.001,0.002,0.001,0.003,0.002c0.008,0.003,0.016,0.007,0.023,0.01c0.003,0.002,0.005,0.003,0.008,0.004 c0.006,0.003,0.013,0.006,0.02,0.009c0.002,0.001,0.005,0.003,0.008,0.004c0.006,0.003,0.013,0.006,0.02,0.009 c0.003,0.001,0.005,0.002,0.008,0.004c0.006,0.003,0.013,0.006,0.02,0.009c0.002,0.001,0.006,0.002,0.008,0.003 c0.007,0.003,0.013,0.006,0.02,0.009c0.003,0.001,0.005,0.002,0.009,0.004c0.006,0.003,0.013,0.006,0.02,0.009 c0.002,0.001,0.005,0.002,0.008,0.003c0.007,0.003,0.014,0.006,0.02,0.01c0.002,0.001,0.005,0.002,0.007,0.003 c0.008,0.003,0.015,0.006,0.022,0.01c0.002,0.001,0.003,0.084,0.006,0.085c0.009,0.004,0.017,0.095,0.026,0.095h0.001 c0.028,0,0.057-0.059,0.085-0.045l0,0c0.009,0.004,0.018-0.034,0.027-0.03c0.001,0.001,0.004-0.019,0.005-0.019 c0.008,0.004,0.015-0.003,0.023,0c0.002,0.001,0.004,0.041,0.006,0.041c0.007,0.004,0.015,0.053,0.022,0.053 c0.001,0,0.005,0,0.006,0c0.007,0,0.015-0.038,0.021-0.035c0.002,0.001,0.005-0.021,0.007-0.02 c0.007,0.002,0.014-0.006,0.021-0.003c0.003,0.002,0.004,0.022,0.007,0.024c0.008,0.004,0.015,0.033,0.022,0.033 c0.002,0,0.002,0,0.004,0c0.008,0,0.017-0.02,0.025-0.016c0.001,0,0.002-0.029,0.003-0.028c0.057,0.024,0.113,0.044,0.17,0.044 c0.001,0,0.001,0,0.002,0c0.009,0,0.018,0,0.027,0h0.001c0.009,0,0.018,0,0.026,0c0.001,0,0.002,0,0.003,0 c0.009,0,0.017,0,0.026,0c0.001,0,0.001,0,0.002,0c0.009,0,0.018,0,0.026,0h0.002c0.009,0,0.019-0.04,0.028-0.036l0,0 c0.067,0.028,0.134,0.036,0.201,0.036c0.001,0,0.001,0,0.002,0c0.009,0,0.017,0,0.026,0c0.001,0,0.002,0,0.003,0 c0.008,0,0.017,0,0.026,0h0.003c0.008,0,0.017,0,0.026,0c0.001,0,0.001,0,0.002,0c0.009,0,0.018,0,0.027,0 c0.001,0,0.001,0,0.002,0c0.077,0,0.153,0,0.229,0h0.003c0.008,0,0.017,0,0.026,0c0.001,0,0.001,0,0.002,0 c0.009,0,0.018,0,0.026,0c0.001,0,0.001,0,0.002,0c0.009,0,0.018,0,0.027,0h0.001c0.009,0-0.06,0.183-0.06,0.187v0.088 c0,0.031,0,0.105,0,0.136v0.021c3,0.92,5.007,1.618,7.577,2.045l1.719-9.86C30.404,109.97,26.846,108.528,23.561,106.321 L23.561,106.321z M51.506,107.987c-3.509,1.795-7.296,2.797-11.256,2.979l0.46,10.213c1.362-0.063,2.706-0.18,4.026-0.18h0.001 c0.01,0,0.018,0,0.027,0c0.001,0,0.001,0,0.002,0c0.008,0,0.018,0,0.026,0c0.001,0,0.002,0,0.004,0c0.007,0,0.018,0,0.025,0 c0.001,0,0.003,0,0.004,0c0.008,0,0.016,0,0.025,0c0.001,0,0.003,0,0.004,0c0.009,0,0.017,0,0.025,0c0.001,0,0.002,0,0.004,0 c0.008,0,0.017,0,0.025,0c0.001,0,0.002,0,0.003,0c0.009,0,0.085-0.24,0.085-0.24v0.132c0-0.008,0.037,0.108,0.085,0.108 c0,0,0.001,0,0.002,0c0.008-1,0.016-1,0.024-1c0.002,0,0.004,0,0.006,0c0.007,0,0.014,0,0.021,0c0.003,0,0.006,0,0.008,0 c0.006,0,0.015,0.242,0.021,0.24c0.003,0,0.006,0.122,0.009,0.121c0.006-0.001,0.014,0.059,0.02,0.058 c0.003-0.001,0.006,0.03,0.01,0.029c0.007-0.001,0.013-0.22,0.02-0.222c0.003,0,0.006-0.227,0.01-0.227c0.007,0,0.013,0,0.02,0 c0.003,0,0.006,0,0.01,0c0.007,0,0.013,0.232,0.021,0.231c0.003-0.001,0.006-0.114,0.009-0.114 c0.006-0.002,0.014-0.117,0.021-0.117c0.003,0,0.007,0,0.01,0c0.006,0,0.013,0.227,0.02,0.226c0.003,0,0.007,0.114,0.01,0.112 c0.007,0,0.012,0.056,0.019,0.055c0.003-0.001,0.007,0.028,0.011,0.027c0.006-0.001,0.013,0.012,0.019,0.011 c0.002-0.001,0.005-0.207,0.007-0.208c0.023-0.004,0.046-0.223,0.069-0.223c0.004,0,0.008,0,0.012,0c0.006,0,0.011,0,0.018,0 c0.004,0,0.008,0,0.012,0c0.006,0,0.011,0.211,0.017,0.209c0.004,0,0.009,0.104,0.013,0.104 c0.005-0.001,0.011,0.052,0.016,0.051s0.01,0.025,0.015,0.024s0.01-0.19,0.015-0.19c0.005-0.002,0.011-0.197,0.016-0.197 s0.01,0,0.015,0s0.01,0,0.015,0s0.01,0.199,0.015,0.199c0.005-0.002,0.011,0.099,0.016,0.098 c0.005-0.001,0.009,0.049,0.014,0.048c0.005-0.001,0.011,0.022,0.017,0.021c0.003,0,0.01-0.179,0.013-0.18 c0.006-0.001,0.012-0.187,0.018-0.187c0.004,0,0.008,0,0.013,0c0.005,0,0.011,0,0.017,0c0.005,0,0.009,0,0.013,0 c0.007,0,0.013,0.188,0.02,0.186c0.003,0,0.007,0.094,0.01,0.093c0.008-0.001,0.016,0.045,0.023,0.044 c0.001-0.001,0.005-0.156,0.006-0.156C45.859,120.162,45.879,120,45.9,120c0.001,0,0.001,0,0.002,0c0.009,0,0.019,0,0.028,0 c0.001,0,0.005,0,0.006,0c0.008,0,0.016,0,0.024,0c0.002,0,0.005,0,0.007,0c0.008,0,0.015,0,0.023,0c0.003,0,0.005,0,0.008,0 c0.007,0,0.014,0.166,0.021,0.165c0.002-0.001,0.007,0.083,0.01,0.083c0.007-0.002,0.014,0.039,0.021,0.038 c0.004-0.001,0.005,0.02,0.008,0.019c0.007-0.002,0.015,0.008,0.022,0.007c0.002-0.001,0.005-0.153,0.008-0.153 c0.008-0.002,0.015-0.158,0.022-0.158c0.002,0,0.005,0,0.008,0c0.007,0,0.015,0.154,0.022,0.152 c0.002,0,0.006-0.074,0.008-0.074c0.007-0.002,0.015-0.078,0.023-0.078c0.002,0,0.004,0,0.007,0c0.008,0,0.017,0,0.025,0 c0.002,0,0.002,0,0.005,0c0.009,0,0.019,0,0.028,0c0.001,0,0,0,0.002,0c0.051,0,0.102,0,0.153,0c0.001,0,0,0,0.002,0 c0.009,0,0.019,0,0.029,0c0.001,0,0,0,0.002,0c0.009,0,0.019,0,0.028,0c0.001,0,0.002,0,0.004,0c0.009,0,0.018,0,0.027,0 c0.001,0,0.002,0,0.003,0c0.009,0,0.018,0,0.027,0c0.001,0,0.002,0,0.004,0c0.009,0,0.019,0,0.027,0c0.001,0,0.001,0,0.003,0 c0.009,0,0.019,0,0.028,0h0.002c0.01,0,0.42,0.107,0.42,0.105v0.056c0-0.02,0-0.011,0-0.03v0.014 c0-0.002-0.037-0.068-0.026-0.07l0,0c0.01-0.002-0.008-0.074,0.002-0.074h-0.014c3.209-1,6.258-1.726,9.104-3.182 L51.506,107.987L51.506,107.987z M63.704,95.657c-1.737,3.489-4.257,6.643-7.289,9.12l6.328,7.743 c4.123-3.369,7.518-7.596,9.913-12.407L63.704,95.657L63.704,95.657z M76.001,76.754l-9.847,1.745 c0.282,1.592,0.425,3.229,0.425,4.864c0,2.309-0.283,4.6-0.843,6.81l9.694,2.453c0.539-2.13,0.896-4.332,1.055-6.589l0,0 c0.002-0.03,0.005-0.061,0.007-0.092v-0.001c0.001-0.019,0.002-0.036,0.004-0.055l0,0c0-0.012,0.001-0.023,0.002-0.036 c0-0.001,0,0,0-0.001c0.001-0.019,0.25-0.036,0.252-0.055l0,0c0-0.012,0.25-0.023,0.25-0.035v-0.002c0-0.007,0-0.012,0-0.018 c0-0.002,0-0.001,0-0.003c0-0.011,0-0.021,0-0.032c0-0.002,0-0.003,0-0.006c0-0.01,0-0.021,0-0.031c0-0.001,0-0.002,0-0.003 c0-0.006,0-0.012,0-0.017c0-0.003,0-0.002,0-0.005c0-0.01,0-0.02,0-0.029c0-0.002,0-0.004,0-0.007c0-0.017,0-0.033,0-0.05 c0-0.003,0-0.004,0-0.008c0-0.009,0-0.018,0-0.026c0-0.002,0-0.005,0-0.008c0-0.005,0-0.011,0-0.016c0-0.001,0-0.005,0-0.006 c0-0.009,0-0.018,0-0.027c0-0.002,0-0.007,0-0.01c0-0.007,0-0.015,0-0.021c0-0.004,0-0.008,0-0.011c0-0.006,0-0.011,0-0.016 c0-0.003,0-0.006,0-0.009c0-0.008,0-0.017,0-0.024c0-0.003,0-0.007,0-0.009c0-0.011,0-0.021,0-0.031v-0.003 c0-0.005,0-0.01,0-0.016c0-0.003,0-0.005,0-0.008c0-0.009,0-0.017,0-0.025c0-0.004,0-0.005,0-0.009c0-0.005,0-0.01,0-0.015 c0-0.004,0-0.009,0-0.013c0-0.007,0-0.014,0-0.021c0-0.005,0-0.007,0-0.012c0-0.006,0-0.012,0-0.017s0-0.011,0-0.017 c0-0.004,0-0.009,0-0.013c0-0.005,0-0.011,0-0.016c0-0.006,0-0.011,0-0.016s0-0.01,0-0.015c0-0.004,0-0.008,0-0.012 c0-0.008,0-0.014,0-0.021c0-0.004,0-0.008,0-0.012c0-0.005,0-0.009,0-0.014c0-0.006,0-0.012,0-0.019c0-0.005,0-0.009,0-0.015 c0-0.004,0-0.008,0-0.012c0-0.007,0-0.014,0-0.021c0-0.004,0-0.008,0-0.012c0-0.005,0-0.01,0-0.015c0-0.004,0-0.007,0-0.011 c0-0.008,0-0.014,0-0.021c0-0.004,0-0.008,0-0.012c0-0.005,0-0.013,0-0.018s0-0.009,0-0.014s0-0.011,0-0.017 c0-0.003,0-0.007,0-0.011c0-0.007,0-0.015,0-0.021c0-0.004,0-0.007,0-0.011c0-0.005,0-0.011,0-0.017c0-0.005,0-0.01,0-0.015 s0-0.012,0-0.017c0-0.004,0-0.007,0-0.011c0-0.007,0-0.015,0-0.022c0-0.003,0-0.006,0-0.009c0-0.005,0-0.014,0-0.019 c0-0.003,0-0.006,0-0.009c0-0.007,0-0.016,0-0.022c0-0.004,0-0.007,0-0.01c0-0.009,0-0.015,0-0.023c0-0.003,0-0.005,0-0.008 c0-0.006,0-0.012,0-0.019c0-0.003,0-0.006,0-0.009c0-0.008,0-0.016,0-0.023c0-0.003,0-0.006,0-0.009c0-0.008,0-0.013,0-0.021 c0-0.003,0-0.006,0-0.009c0-0.007,0-0.014,0-0.021c0-0.003,0-0.005,0-0.008c0-0.008,0-0.017,0-0.024c0-0.003,0-0.005,0-0.008 c0-0.007,0-0.012,0-0.02c0-0.003,0-0.005,0-0.008c0-0.007,0-0.016,0-0.023c0-0.003,0-0.006,0-0.01c0-0.009,0-0.015,0-0.023 c0-0.002,0-0.004,0-0.006c0-0.008,0-0.013,0-0.021c0-0.003,0-0.006,0-0.008c0-0.008,0-0.017,0-0.024c0-0.003,0-0.006,0-0.009 c0-0.007,0-0.013,0-0.021c0-0.002,0-0.005,0-0.008c0-0.008,0-0.015,0-0.022c0-0.002,0-0.005,0-0.008c0-0.008,0-0.017,0-0.024 c0-0.002,0-0.004,0-0.006c0-0.008,0-0.016,0-0.023c0-0.002,0-0.003,0-0.005c0-0.009,0-0.017,0-0.025c0-0.002,0-0.005,0-0.007 c0-0.009,0-0.017,0-0.025c0-0.002,0-0.003,0-0.004c0-0.008,0-0.017,0-0.023c0-0.002,0-0.005,0-0.007c0-0.007,0-0.018,0-0.025 c0-0.002,0-0.004,0-0.006c0-0.008,0-0.017,0-0.024c0-0.001,0-0.003,0-0.004c0-0.009,0-0.017,0-0.025c0-0.002,0-0.004,0-0.006 c0-0.009,0-0.018,0-0.026c0-0.001,0-0.003,0-0.005c0-0.008,0-0.017,0-0.024c0-0.001,0-0.002,0-0.004c0-0.009,0-0.018,0-0.026 c0-0.002,0-0.004,0-0.005c0-0.009,0-0.019,0-0.027c0-0.001,0-0.002,0-0.003c0-0.008,0-0.018,0-0.024c0-0.002,0-0.004,0-0.006 c0-0.009,0-0.017,0-0.026c0-0.001,0-0.003,0-0.005c0-0.009,0-0.017,0-0.025c0-0.001,0-0.002,0-0.003c0-0.009,0-0.018,0-0.026 c0-0.002,0-0.003,0-0.005c0-0.008,0-0.019,0-0.026c0-0.002,0-0.004,0-0.006c0-0.008,0-0.016,0-0.023c0-0.002,0-0.003,0-0.004 c0-0.009,0-0.018,0-0.026c0-0.002,0-0.005,0-0.007c0-0.009,0-0.018,0-0.026c0,0,0-0.001,0-0.002c0-0.009,0-0.017,0-0.026 c0-0.001,0-0.003,0-0.004c0-0.009,0-0.018,0-0.026c0-0.002,0-0.004,0-0.006c0-0.009,0-0.017,0-0.025c0-0.001,0-0.002,0-0.003 c0-0.009,0-0.017,0-0.026c0-0.002,0-0.004,0-0.006c0-0.009,0-0.017,0-0.025c0-0.002,0-0.004,0-0.005c0-0.009,0-0.018,0-0.026 c0,0,0-0.001,0-0.002c0-0.009,0-0.018,0-0.026c0-0.002,0-0.005,0-0.007c0-0.009,0-0.017,0-0.026c0-0.001,0-0.002,0-0.003 c0-0.008,0-0.018,0-0.025c0-0.001,0-0.003,0-0.004c0-0.009,0-0.018,0-0.026c0-0.002,0-0.004,0-0.006c0-0.009,0-0.019,0-0.027 l0,0c0-0.009,0-0.02,0-0.028c0-0.003,0-0.007,0-0.01c0-0.007,0-0.013,0-0.02c0-0.003,0-0.007,0-0.011c0-0.006,0-0.012,0-0.018 c0-0.004,0-0.008,0-0.012c0-0.005,0-0.012,0-0.018c0-0.004,0-0.008,0-0.012c0-0.006,0-0.011,0-0.018c0-0.003,0-0.007,0-0.011 c0-0.006,0-0.016,0-0.021c0-0.002,0-0.005,0-0.007c0-0.01,0-0.019,0-0.029c0-0.001,0-0.003,0-0.005c0-0.008,0-0.016,0-0.022 c0-0.004,0-0.008,0-0.011c0-0.007,0-0.013,0-0.019c0-0.004,0-0.008,0-0.011c0-0.005,0-0.013,0-0.018c0-0.004,0-0.008,0-0.012 c0-0.006,0-0.013,0-0.019c0-0.003,0-0.007,0-0.01c0-0.007,0-0.014,0-0.021c0-0.003,0-0.006,0-0.009c0-0.009,0-0.017,0-0.025 c0-0.001,0-0.002,0-0.003c0-0.01,0-0.019,0-0.029c0-0.002,0-0.005,0-0.007c0-0.007,0-0.015,0-0.021c0-0.003,0-0.007,0-0.01 c0-0.007,0-0.012,0-0.019c0-0.004,0-0.008,0-0.012c0-0.005,0-0.012,0-0.018c0-0.003,0-0.007,0-0.011c0-0.006,0-0.012,0-0.019 c0-0.003,0-0.007,0-0.01c0-0.007,0-0.015,0-0.021c0-0.002,0-0.005,0-0.007c0-0.011,0-0.02,0-0.029c0-0.001,0-0.002,0-0.003 c0-0.009,0-0.018,0-0.026c0-0.002,0-0.005,0-0.007c0-0.008,0-0.014,0-0.021c0-0.003,0-0.006,0-0.01c0-0.006,0-0.013,0-0.02 c0-0.003,0-0.006,0-0.009c0-0.007,0-0.014,0-0.02c0-0.004,0-0.007,0-0.01c0-0.008,0-0.015,0-0.021c0-0.003,0-0.005,0-0.007 c0-0.021,0-0.039,0-0.059c0-0.001,0-0.002,0-0.002c0-0.011,0-0.017,0-0.027c0-0.002,0-0.004,0-0.006c0-0.008,0-0.016,0-0.022 c0-0.003,0-0.005,0-0.008c0-0.008,0-0.014,0-0.021c0-0.003,0-0.006,0-0.009c0-0.007,0-0.013,0-0.021c0-0.003,0-0.005,0-0.008 c0-0.008,0-0.016,0-0.023c0-0.002,0-0.004,0-0.006c0-0.02,0-0.038,0-0.058c0-0.002,0-0.004,0-0.005c0-0.008,0-0.018,0-0.024 c0-0.003,0-0.005,0-0.007c0-0.008,0-0.015,0-0.022c0-0.002,0-0.005,0-0.008c0-0.007,0-0.014,0-0.021c0-0.002,0-0.005,0-0.007 c0-0.008,0-0.017,0-0.024c0-0.001,0-0.003,0-0.005c0-0.03,0-0.058,0-0.088c0-0.001,0-0.003,0-0.004c0-0.008,0-0.018,0-0.025 c0-0.002,0-0.004,0-0.006c0-0.008,0-0.016,0-0.023c0-0.002,0-0.004,0-0.006c0-0.008,0-0.017,0-0.023c0-0.002,0-0.004,0-0.006 c0-0.03,0-0.059,0-0.089l0,0c0-0.011,0-0.019,0-0.028c0-0.002,0-0.003,0-0.005c0-0.008,0-0.017,0-0.024c0-0.002,0-0.003,0-0.005 c0-0.008,0-0.018,0-0.024c0-0.002,0-0.004,0-0.006c0-0.008,0-0.018,0-0.026c0,0,0-0.001,0-0.002c0-0.03,0-0.06,0-0.089 c0-0.001,0-0.001,0-0.002c0-0.01,0-0.018,0-0.028c0,0,0-0.001,0-0.002c0-0.009,0-0.018,0-0.026c0-0.002,0-0.003,0-0.005 c0-0.008,0-0.019,0-0.025c0-0.001,0-0.002,0-0.003C77,81.597,76.999,82,76.997,82H77c0,0,0-0.502,0-0.512 c0-0.001,0-0.002,0-0.003c0-0.008,0-0.02,0-0.026c0-0.001,0-0.003,0-0.004c0-0.01,0-0.017,0-0.026c0-0.001,0-0.002,0-0.003 c0-0.04,0-0.078,0-0.118c0-0.001,0-0.002,0-0.003c0-0.01,0-0.018,0-0.027c0-0.001,0-0.001,0-0.002C77,81.266,76.76,81,76.76,81 h-0.12c-0.003,0-0.065,0-0.068,0h0.216c0,0,0.213,0.077,0.213,0.067c0-0.001,0-0.001,0-0.002c0-0.06-0.252-0.119-0.256-0.179 l0,0c-0.004-0.061-0.131-0.12-0.135-0.18l0,0c0-0.011-0.062-0.1-0.063-0.109l0,0C76.486,79.75,76.367,79,76.253,78h-0.016 c-0.001,0-0.108,0.061-0.11,0.051l0,0C76.12,78.002,76,78.033,76,77.984c0-0.001,0-0.001,0-0.002c0-0.01,0-0.018,0-0.027 c0-0.001,0-0.001,0-0.002C76,77.943,76.094,78,76.093,78h-0.038C76.049,78,76,77.848,76,77.809c0-0.001,0-0.002,0-0.003 c0-0.01,0-0.016,0-0.025c0-0.001,0-0.002,0-0.004c0-0.007,0-0.018,0-0.024c0-0.002,0-0.003,0-0.005c0-0.009,0-0.017,0-0.025 c0-0.001,0-0.002,0-0.002c0-0.029,0-0.057,0-0.086c0-0.002,0-0.003,0-0.005c0-0.007,0-0.016,0-0.023c0-0.002,0-0.004,0-0.006 c0-0.007,0-0.016,0-0.022c0-0.002,0-0.004,0-0.006c0-0.008,0-0.016,0-0.022c0-0.002,0-0.004,0-0.006c0-0.008,0-0.017,0-0.023 c0-0.002,0-0.003,0-0.005c0-0.02,0-0.037,0-0.057c0-0.001,0-0.002,0-0.002c0-0.009,0-0.018,0-0.025c0-0.003,0-0.005,0-0.007 c0-0.008,0-0.014,0-0.021c0-0.003,0-0.006,0-0.01c0-0.007,0.053-0.012,0.051-0.019c0-0.003-0.023-0.006-0.024-0.009 C76.025,77.36,76,77.353,76,77.347c0-0.003,0-0.006,0-0.009c0-0.007,0-0.014,0-0.021c0-0.003,0-0.005,0-0.007 c0-0.01,0-0.018,0-0.027c0-0.002,0-0.003,0-0.005c0-0.007,0-0.016,0-0.023c0-0.002,0-0.005,0-0.008c0-0.006,0-0.013,0-0.019 c0-0.004,0-0.007,0-0.011c0-0.006,0.038-0.012,0.037-0.018c-0.001-0.003,0.02-0.007,0.018-0.01c0-0.007,0.009-0.012,0.008-0.018 c0-0.003-0.03-0.007-0.031-0.011C76.03,77.156,76,77.15,76,77.145c0-0.003,0-0.007,0-0.01c0-0.006,0-0.014,0-0.021 c0-0.002,0-0.005,0-0.007c0-0.01,0-0.018,0-0.026c0-0.004,0-0.008,0-0.011c0-0.005,0.025-0.012,0.025-0.017 c-0.002-0.005-0.009-0.009-0.01-0.014c0-0.004-0.016-0.01-0.016-0.014s0-0.009,0-0.014s0-0.008,0-0.013s0-0.01,0-0.015 c0-0.004,0-0.009,0-0.013c0-0.005,0.018-0.01,0.017-0.015c-0.001-0.004-0.007-0.007-0.008-0.012S76,76.936,76,76.931 c0-0.002,0-0.004,0-0.006c0-0.013,0.004-0.024,0.002-0.037C76,76.886,76,76.882,76,76.88c0-0.006,0-0.012,0-0.017 s0-0.006,0-0.011c0-0.006,0-0.011,0-0.017c0-0.004,0-0.007,0-0.01c0-0.006,0-0.012,0-0.018c0-0.003,0-0.006,0-0.01 c0-0.005,0-0.011,0-0.017c0-0.002,0-0.007,0-0.009C76,76.768,76,76.761,76.001,76.754C76,76.754,76.001,76.756,76.001,76.754 L76.001,76.754z M64.78,55.999l-6.865,7.271c2.847,2.689,5.133,6.012,6.61,9.612l9.251-3.796 c-0.406-0.99-0.854-1.959-1.34-2.904v-0.001c-0.005-0.008-0.009-0.016-0.013-0.024l-0.001-0.001 c-0.004-0.008-0.008-0.016-0.013-0.024V66.13c-0.035-0.067-0.069-0.134-0.104-0.201h-0.001 c-0.004-0.009-0.147-0.017-0.152-0.025l0,0C72.147,65.895,72,65.887,72,65.879c0-0.001,0-0.001,0-0.002c0-0.008,0-0.015,0-0.023 c0-0.001,0-0.001,0-0.002c0-0.009,0-0.016,0-0.023c0,0,0-0.001,0-0.002c0-0.058,0-0.115,0-0.173c0-0.001,0-0.002,0-0.003 c0-0.007,0.071-0.014,0.067-0.021c-0.001-0.001,0.038-0.003,0.038-0.005c-0.004-0.006,0.011-0.015,0.008-0.021 c-0.001-0.002-0.049-0.003-0.049-0.004C72.061,65.592,72,65.585,72,65.577c0-0.001,0-0.002,0-0.003 C72,65.567,72.108,66,72.104,66c-0.001,0-0.02,0-0.02,0C72.062,66,72,65.469,72,65.428c0-0.001,0-0.001,0-0.002 c0-0.007,0.011-0.015,0.007-0.021c-0.001-0.001,0.003-0.003,0.003-0.004C72.006,65.393,72,65.388,72,65.38 c0-0.002,0-0.004,0-0.006c0-0.006-0.002-0.014-0.006-0.02c-0.002-0.002-0.001-0.004-0.002-0.006 c-0.004-0.006-0.006-0.014-0.009-0.02c-0.001-0.002-0.001-0.004-0.003-0.006c-0.003-0.007-0.007-0.014-0.011-0.021 c-0.001-0.001-0.001-0.003-0.002-0.005c-0.005-0.007-0.008-0.014-0.012-0.021c-0.001-0.001-0.001-0.002-0.002-0.004 c-0.021-0.039-0.044-0.079-0.065-0.119c-0.001-0.001-0.002-0.002-0.002-0.003c-0.004-0.007-0.008-0.013-0.012-0.021 c-0.001-0.002-0.002-0.003-0.003-0.005c-0.003-0.007-0.008-0.014-0.011-0.021c-0.001-0.002-0.002-0.004-0.004-0.006 c-0.003-0.006-0.007-0.013-0.01-0.019c-0.002-0.002-0.003-0.005-0.004-0.007c-0.004-0.006-0.007-0.013-0.011-0.019 c-0.001-0.003-0.002-0.005-0.004-0.007c-0.003-0.007-0.007-0.013-0.01-0.019c-0.002-0.003,0.095-0.005,0.095-0.007 C71.91,65.016,72,65.011,72,65.004c0-0.001,0-0.002,0-0.003c0-0.04-0.143-0.079-0.165-0.118 c-0.001-0.002-0.052-0.003-0.052-0.005c-0.004-0.006-0.032-0.013-0.036-0.019c-0.001-0.002-0.014-0.005-0.016-0.007 c-0.003-0.005-0.014-0.013-0.017-0.018c-0.002-0.003-0.006-0.005-0.008-0.008c-0.004-0.006-0.007-0.011-0.011-0.017 c-0.001-0.002-0.004-0.005-0.006-0.008c-0.003-0.006-0.007-0.011-0.011-0.018c-0.001-0.002-0.003-0.005-0.004-0.008 c-0.003-0.005-0.008-0.013-0.011-0.018c-0.001-0.002-0.003-0.004-0.004-0.007c-0.004-0.006-0.007-0.012-0.011-0.019 c-0.001-0.002-0.002-0.004-0.004-0.006c-0.016-0.029-0.033-0.059-0.05-0.087c-0.001-0.002-0.003-0.004-0.004-0.007 c-0.003-0.006-0.006-0.011-0.01-0.017c-0.002-0.003-0.003-0.006-0.005-0.008c-0.003-0.005-0.007-0.012-0.01-0.017 c-0.002-0.003-0.003-0.005-0.005-0.008c-0.003-0.005-0.007-0.012-0.01-0.017c-0.002-0.003-0.004-0.006-0.005-0.009 c-0.004-0.006-0.006-0.01-0.01-0.017c-0.002-0.003-0.004-0.006-0.005-0.009c-0.003-0.005-0.007-0.011-0.01-0.017 c-0.002-0.003-0.004-0.005-0.005-0.008c-0.003-0.005-0.007-0.012-0.01-0.017c-0.002-0.003-0.004-0.005-0.005-0.008 c-0.004-0.006-0.007-0.011-0.011-0.018c-0.001-0.002-0.002-0.222-0.003-0.224C71.487,64.23,71.483,64,71.479,64h-0.226 C71.244,64,71,64.404,71,64.389c0-0.001,0-0.001,0-0.001c0-0.008,0.218-0.014,0.214-0.021c-0.001-0.001,0.11-0.003,0.11-0.004 c-0.004-0.006,0.049-0.012,0.045-0.018c-0.002-0.003,0.025-0.005,0.023-0.008c-0.003-0.005,0.008-0.011,0.005-0.016 c-0.002-0.003,0.004-0.006,0.002-0.009c-0.003-0.005-0.004-0.011-0.007-0.016c-0.002-0.003-0.002-0.007-0.004-0.01 c-0.004-0.006-0.005-0.01-0.008-0.016c-0.002-0.003-0.003-0.006-0.005-0.01c-0.003-0.005-0.007-0.011-0.01-0.016 c-0.002-0.003-0.004-0.006-0.006-0.01c-0.003-0.005-0.006-0.011-0.009-0.016c-0.002-0.002-0.004-0.005-0.005-0.008 c-0.004-0.006-0.007-0.011-0.011-0.017c-0.001-0.002-0.148-0.004-0.15-0.006C71.173,64.163,71,64.142,71,64.119v-0.001 c0-0.006,0.139-0.012,0.135-0.018c-0.002-0.002,0.07-0.005,0.068-0.007c-0.003-0.006,0.031-0.011,0.027-0.017 c-0.001-0.003,0.015-0.006,0.013-0.009c-0.003-0.005,0.003-0.01,0-0.015c-0.002-0.003,0-0.007-0.002-0.01 c-0.003-0.005-0.003-0.01-0.006-0.016c-0.002-0.003-0.003-0.006-0.006-0.01c-0.003-0.005-0.006-0.01-0.009-0.015 c-0.002-0.004-0.003-0.007-0.005-0.01c-0.003-0.005-0.006-0.01-0.01-0.015c-0.002-0.003-0.004-0.007-0.006-0.01 c-0.003-0.005-0.006-0.01-0.009-0.015c-0.002-0.003-0.004-0.007-0.006-0.01c-0.003-0.005-0.007-0.01-0.01-0.016 c-0.001-0.002-0.003-0.005-0.005-0.007c-0.011-0.018-0.021-0.036-0.032-0.055c-0.003-0.004-0.006-0.009-0.009-0.013 c-0.003-0.005-0.005-0.009-0.008-0.014c-0.002-0.004-0.005-0.007-0.007-0.011c-0.003-0.004-0.007-0.01-0.009-0.015 c-0.002-0.004-0.005-0.007-0.007-0.011c-0.003-0.005-0.006-0.009-0.009-0.014c-0.002-0.004-0.005-0.008-0.007-0.011 c-0.003-0.005-0.006-0.009-0.009-0.015c-0.002-0.003-0.004-0.007-0.007-0.011c-0.003-0.005-0.006-0.01-0.009-0.015 c-0.002-0.003-0.004-0.006-0.006-0.01c-0.003-0.005-0.007-0.011-0.01-0.016c-0.002-0.003-0.004-0.006-0.006-0.009 c-0.003-0.005-0.007-0.011-0.01-0.016c-0.001-0.003-0.004-0.006-0.005-0.009c-0.004-0.006-0.007-0.01-0.011-0.017 c-0.001-0.002-0.003-0.004-0.004-0.007c-0.012-0.019-0.024-0.039-0.036-0.058c-0.002-0.003-0.004-0.006-0.005-0.009 c-0.004-0.005-0.006-0.01-0.01-0.015c-0.002-0.003-0.004-0.007-0.007-0.011c-0.003-0.005-0.006-0.01-0.009-0.015 c-0.002-0.003-0.004-0.007-0.007-0.011c-0.003-0.005-0.005-0.009-0.009-0.014c-0.002-0.004-0.004-0.007-0.007-0.011 c-0.002-0.004-0.006-0.01-0.009-0.014c-0.002-0.003-0.005-0.008-0.007-0.011c-0.002-0.004-0.006-0.009-0.008-0.013 c-0.003-0.004-0.006-0.008-0.008-0.013c-0.003-0.004-0.006-0.009-0.009-0.013c-0.002-0.004-0.005-0.009-0.008-0.013 c-0.002-0.004-0.005-0.008-0.008-0.013s-0.005-0.008-0.008-0.013c-0.003-0.004-0.006-0.009-0.008-0.013 c-0.003-0.005-0.006-0.01-0.01-0.015c-0.003-0.006-0.007-0.012-0.011-0.018s-0.007-0.011-0.011-0.017 c-0.002-0.004-0.005-0.008-0.007-0.012c-0.003-0.005-0.006-0.009-0.009-0.014c-0.003-0.004-0.006-0.009-0.008-0.013 c-0.003-0.004-0.006-0.008-0.008-0.012c-0.003-0.004-0.006-0.009-0.009-0.013s-0.005-0.008-0.008-0.012 c-0.003-0.005-0.005-0.008-0.008-0.013c-0.003-0.004-0.005-0.008-0.008-0.012c-0.002-0.004-0.006-0.009-0.008-0.013 c-0.003-0.004-0.006-0.008-0.009-0.013c-0.003-0.005-0.005-0.007-0.008-0.012c-0.002-0.004-0.005-0.008-0.008-0.013 c-0.002-0.004-0.006-0.009-0.008-0.013c-0.003-0.004-0.006-0.009-0.009-0.013c-0.002-0.004-0.005-0.008-0.007-0.012 c-0.004-0.004-0.007-0.009-0.01-0.014c-0.002-0.004-0.004-0.007-0.007-0.012c-0.004-0.007-0.009-0.014-0.014-0.021 c-0.002-0.004-0.005-0.008-0.008-0.012c-0.003-0.005-0.007-0.011-0.01-0.017c-0.003-0.004-0.005-0.007-0.008-0.011 c-0.003-0.004-0.006-0.009-0.009-0.014c-0.002-0.004-0.005-0.008-0.008-0.012c-0.002-0.004-0.006-0.009-0.008-0.014 c-0.003-0.004-0.006-0.008-0.008-0.012c-0.003-0.004-0.006-0.009-0.009-0.014c-0.003-0.004-0.005-0.007-0.008-0.011 c-0.003-0.004-0.006-0.009-0.009-0.014c-0.002-0.004-0.005-0.008-0.008-0.012c-0.003-0.004-0.005-0.008-0.008-0.013 c-0.003-0.004-0.005-0.008-0.008-0.012s-0.006-0.008-0.009-0.013c-0.003-0.004-0.005-0.008-0.008-0.012 c-0.003-0.005-0.006-0.009-0.009-0.014c-0.002-0.003-0.005-0.008-0.007-0.011c-0.003-0.004-0.006-0.009-0.01-0.014 c-0.002-0.004-0.006-0.009-0.008-0.013c-0.005-0.008-0.01-0.015-0.015-0.022c-0.002-0.003-0.005-0.007-0.007-0.01 c-0.003-0.005-0.007-0.01-0.01-0.015c-0.003-0.004-0.005-0.008-0.008-0.012c-0.003-0.004-0.006-0.009-0.009-0.014 c-0.002-0.004-0.005-0.008-0.008-0.012c-0.003-0.004-0.005-0.009-0.008-0.013s-0.006-0.009-0.009-0.013 c-0.002-0.004-0.005-0.008-0.008-0.013c-0.003-0.004-0.006-0.008-0.008-0.012c-0.003-0.004-0.006-0.009-0.009-0.013 c-0.003-0.004-0.005-0.008-0.008-0.012c-0.003-0.005-0.006-0.009-0.009-0.014c-0.003-0.004-0.005-0.007-0.008-0.011 c-0.003-0.005-0.006-0.009-0.009-0.014c-0.003-0.004-0.005-0.007-0.008-0.011c-0.003-0.005-0.006-0.01-0.009-0.015 c-0.003-0.004-0.005-0.006-0.007-0.01c-0.005-0.006-0.009-0.013-0.013-0.019c-0.001-0.002-0.003-0.004-0.004-0.006 c-0.006-0.008-0.011-0.017-0.017-0.024c-0.002-0.003-0.004-0.006-0.006-0.009c-0.004-0.005-0.007-0.011-0.011-0.016 c-0.002-0.003-0.005-0.007-0.007-0.01c-0.003-0.005-0.007-0.01-0.01-0.015c-0.002-0.003-0.005-0.006-0.007-0.009 c-0.003-0.005-0.006-0.01-0.01-0.016c-0.002-0.003-0.005-0.008-0.007-0.011c-0.003-0.004-0.007-0.009-0.01-0.014 c-0.002-0.004-0.005-0.007-0.008-0.011c-0.003-0.004-0.006-0.009-0.008-0.013c-0.003-0.004-0.006-0.008-0.009-0.012 s-0.006-0.009-0.009-0.013c-0.002-0.004-0.005-0.008-0.008-0.012c-0.003-0.005-0.006-0.009-0.009-0.014 c-0.002-0.003-0.006-0.008-0.008-0.011c-0.003-0.005-0.006-0.01-0.01-0.015c-0.003-0.004-0.004-0.005-0.007-0.009 c-0.004-0.007-0.009-0.014-0.013-0.02c-0.002-0.002-0.002-0.003-0.004-0.005c-0.006-0.008-0.011-0.017-0.017-0.025 c-0.001-0.001-0.003-0.004-0.003-0.005c-0.005-0.006-0.009-0.013-0.014-0.02c-0.002-0.003-0.004-0.005-0.006-0.008 c-0.004-0.005-0.007-0.011-0.011-0.016c-0.003-0.004-0.005-0.006-0.007-0.01c-0.003-0.004-0.007-0.009-0.01-0.014 c-0.002-0.003-0.006-0.008-0.008-0.011c-0.003-0.005-0.006-0.01-0.009-0.014c-0.003-0.004-0.005-0.007-0.008-0.011 c-0.003-0.005-0.006-0.009-0.009-0.014c-0.003-0.003-0.006-0.008-0.008-0.011c-0.003-0.004-0.007-0.01-0.01-0.014 c-0.003-0.004-0.005-0.006-0.007-0.01c-0.004-0.005-0.007-0.01-0.011-0.015c-0.002-0.003-0.005-0.007-0.007-0.01 c-0.003-0.005-0.008-0.011-0.011-0.017c-0.002-0.003-0.004-0.005-0.006-0.008c-0.005-0.008-0.01-0.015-0.016-0.022 c-0.002-0.003-0.004-0.006-0.006-0.009c-0.004-0.005-0.008-0.012-0.012-0.017c-0.003-0.004-0.005-0.007-0.008-0.011 c-0.003-0.005-0.006-0.009-0.01-0.014c-0.002-0.004-0.005-0.008-0.008-0.012c-0.003-0.004-0.006-0.009-0.009-0.013 c-0.003-0.004-0.005-0.007-0.008-0.011c-0.003-0.004-0.006-0.009-0.009-0.013c-0.003-0.004-0.006-0.008-0.008-0.012 c-0.004-0.004-0.007-0.009-0.01-0.013c-0.003-0.004-0.005-0.007-0.008-0.011c-0.003-0.005-0.006-0.009-0.01-0.014 c-0.002-0.003-0.005-0.008-0.007-0.011c-0.004-0.005-0.007-0.009-0.01-0.014c-0.003-0.004-0.005-0.007-0.008-0.011 c-0.003-0.005-0.006-0.009-0.01-0.014c-0.002-0.003-0.005-0.008-0.007-0.011c-0.004-0.005-0.008-0.011-0.012-0.016 c-0.002-0.003-0.003-0.005-0.006-0.008c-0.005-0.008-0.011-0.016-0.017-0.024c-0.002-0.003-0.004-0.006-0.006-0.009 c-0.004-0.005-0.008-0.011-0.011-0.016c-0.003-0.003-0.005-0.006-0.007-0.009c-0.004-0.005-0.007-0.01-0.011-0.015 c-0.002-0.003-0.005-0.007-0.007-0.01c-0.004-0.005-0.007-0.01-0.011-0.015c-0.002-0.003-0.005-0.007-0.007-0.01 c-0.003-0.004-0.007-0.009-0.01-0.014c-0.003-0.004-0.005-0.007-0.008-0.011c-0.003-0.004-0.007-0.009-0.01-0.014 c-0.003-0.003-0.005-0.007-0.008-0.011c-0.003-0.004-0.006-0.009-0.009-0.014c-0.003-0.004-0.005-0.006-0.008-0.01 c-0.004-0.005-0.007-0.01-0.011-0.015c-0.002-0.004-0.004-0.006-0.007-0.01c-0.003-0.004-0.007-0.01-0.01-0.014 c-0.003-0.003-0.005-0.007-0.008-0.01c-0.004-0.006-0.009-0.013-0.013-0.019c-0.002-0.002-0.003-0.003-0.004-0.005 c-0.006-0.008-0.012-0.017-0.018-0.025c-0.001-0.001-0.001-0.001-0.002-0.002c-0.005-0.007-0.011-0.015-0.016-0.022 c-0.001-0.002-0.004-0.005-0.005-0.007c-0.004-0.006-0.008-0.011-0.012-0.017c-0.003-0.003-0.005-0.006-0.007-0.009 c-0.004-0.005-0.008-0.01-0.011-0.015c-0.002-0.003-0.005-0.006-0.007-0.009c-0.004-0.005-0.007-0.01-0.011-0.015 c-0.003-0.004-0.004-0.006-0.007-0.01c-0.004-0.004-0.007-0.01-0.011-0.015c-0.002-0.002-0.005-0.007-0.007-0.01 c-0.004-0.004-0.007-0.009-0.011-0.014c-0.002-0.003-0.005-0.006-0.007-0.01c-0.004-0.005-0.008-0.01-0.011-0.015 c-0.003-0.003-0.005-0.006-0.007-0.009c-0.004-0.005-0.008-0.011-0.012-0.017c-0.002-0.002-0.005-0.006-0.006-0.008 c-0.012-0.016-0.023-0.032-0.035-0.048c-0.002-0.003-0.003-0.004-0.005-0.007c-0.004-0.006-0.009-0.012-0.013-0.018 c-0.002-0.003-0.004-0.006-0.006-0.009c-0.004-0.005-0.008-0.01-0.012-0.015c-0.002-0.004-0.004-0.006-0.007-0.01 c-0.003-0.005-0.007-0.01-0.011-0.015c-0.002-0.003-0.005-0.007-0.007-0.01c-0.003-0.005-0.007-0.01-0.011-0.014 c-0.002-0.004-0.004-0.006-0.007-0.01c-0.004-0.005-0.007-0.01-0.011-0.015c-0.002-0.003-0.005-0.006-0.007-0.009 c-0.004-0.005-0.008-0.01-0.011-0.015c-0.003-0.003-0.004-0.005-0.007-0.009c-0.004-0.005-0.008-0.011-0.013-0.016 c-0.002-0.003-0.003-0.005-0.005-0.008c-0.005-0.006-0.009-0.011-0.013-0.018c-0.003-0.003-0.003-0.004-0.006-0.007 c-0.012-0.016-0.023-0.032-0.035-0.048c-0.001-0.002-0.003-0.004-0.004-0.005c-0.005-0.006-0.009-0.012-0.014-0.019 c-0.002-0.003-0.004-0.004-0.006-0.007c-0.004-0.005-0.008-0.011-0.012-0.017c-0.003-0.002-0.005-0.006-0.007-0.008 c-0.004-0.005-0.008-0.011-0.012-0.016c-0.002-0.002-0.004-0.006-0.006-0.009c-0.004-0.005-0.008-0.01-0.012-0.015 c-0.003-0.004-0.004-0.005-0.007-0.009c-0.004-0.005-0.008-0.01-0.011-0.015c-0.003-0.003-0.005-0.006-0.007-0.009 c-0.004-0.005-0.008-0.011-0.012-0.016c-0.002-0.003-0.004-0.006-0.007-0.009c-0.004-0.005-0.008-0.011-0.012-0.016 c-0.002-0.003-0.004-0.005-0.006-0.008c-0.005-0.007-0.01-0.013-0.015-0.02c-0.002-0.002-0.002-0.002-0.003-0.004 c-0.012-0.016-0.023-0.032-0.036-0.048c-0.001-0.002-0.003-0.004-0.005-0.006c-0.005-0.006-0.009-0.012-0.014-0.018 c-0.002-0.003-0.003-0.004-0.005-0.007c-0.004-0.005-0.009-0.011-0.013-0.017c-0.002-0.003-0.004-0.005-0.006-0.008 c-0.004-0.005-0.009-0.011-0.013-0.016c-0.002-0.003-0.004-0.006-0.006-0.009c-0.004-0.005-0.008-0.01-0.012-0.015 c-0.002-0.002-0.005-0.006-0.007-0.009c-0.004-0.005-0.008-0.01-0.012-0.015c-0.002-0.003-0.004-0.005-0.006-0.008 c-0.004-0.005-0.009-0.011-0.013-0.017c-0.002-0.003-0.003-0.004-0.006-0.007c-0.004-0.006-0.009-0.012-0.014-0.018 c-0.001-0.002-0.003-0.004-0.004-0.006c-0.006-0.007-0.01-0.013-0.016-0.02c-0.001-0.002-0.001-0.002-0.003-0.004 c-0.006-0.008-0.012-0.016-0.019-0.024c0-0.001-0.001-0.002-0.002-0.003c-0.005-0.007-0.011-0.014-0.016-0.021 c-0.002-0.001-0.004-0.004-0.006-0.006c-0.004-0.006-0.008-0.011-0.013-0.017c-0.002-0.003-0.004-0.005-0.006-0.008 c-0.004-0.005-0.008-0.01-0.012-0.016c-0.003-0.002-0.005-0.006-0.007-0.009c-0.004-0.005-0.008-0.01-0.012-0.015 c-0.002-0.003-0.005-0.006-0.007-0.008c-0.004-0.005-0.008-0.01-0.012-0.015c-0.002-0.003-0.005-0.007-0.007-0.009 c-0.004-0.005-0.008-0.01-0.011-0.015c-0.003-0.003-0.006-0.006-0.008-0.009c-0.004-0.005-0.007-0.009-0.011-0.014 c-0.002-0.003-0.005-0.007-0.008-0.01c-0.004-0.005-0.008-0.011-0.012-0.016c-0.002-0.002-0.004-0.005-0.006-0.007 c-0.005-0.007-0.011-0.014-0.016-0.021c-0.001-0.001-0.002-0.002-0.003-0.003c-0.006-0.008-0.012-0.016-0.019-0.023 c-0.001-0.002-0.002-0.003-0.003-0.004c-0.005-0.007-0.01-0.013-0.015-0.019c-0.002-0.003-0.004-0.005-0.006-0.008 c-0.005-0.005-0.009-0.011-0.013-0.017c-0.003-0.002-0.004-0.005-0.007-0.007c-0.004-0.005-0.008-0.011-0.012-0.016 c-0.002-0.002-0.005-0.005-0.007-0.008c-0.004-0.005-0.008-0.01-0.012-0.016c-0.002-0.002-0.005-0.005-0.007-0.008 c-0.004-0.005-0.008-0.01-0.012-0.015c-0.002-0.002-0.005-0.006-0.007-0.009c-0.004-0.005-0.008-0.01-0.012-0.016 c-0.002-0.002-0.005-0.006-0.007-0.008c-0.004-0.005-0.009-0.011-0.013-0.017c-0.002-0.002-0.004-0.005-0.005-0.007 c-0.006-0.006-0.011-0.013-0.016-0.02c-0.001,0-0.003-0.002-0.003-0.003c-0.013-0.016-0.025-0.032-0.038-0.048 c-0.001,0-0.001-0.001-0.002-0.002c-0.006-0.007-0.011-0.014-0.017-0.021c-0.002-0.003-0.003-0.004-0.005-0.007 c-0.005-0.006-0.009-0.011-0.014-0.017c-0.002-0.003-0.004-0.005-0.006-0.008c-0.004-0.005-0.009-0.01-0.013-0.015 c-0.002-0.003-0.005-0.006-0.007-0.009c-0.004-0.005-0.008-0.01-0.012-0.015c-0.003-0.003-0.004-0.004-0.007-0.008 c-0.004-0.005-0.008-0.01-0.012-0.015c-0.003-0.003-0.005-0.005-0.007-0.008c-0.004-0.005-0.009-0.011-0.013-0.016 c-0.002-0.002-0.004-0.005-0.006-0.007c-0.004-0.005-0.009-0.011-0.014-0.017c-0.001-0.002-0.004-0.004-0.005-0.006 c-0.006-0.007-0.012-0.014-0.017-0.021l-0.002-0.002c-0.013-0.016-0.025-0.032-0.038-0.048 c-0.001-0.001-0.002-0.002-0.003-0.003c-0.005-0.007-0.01-0.013-0.016-0.02c-0.002-0.002-0.004-0.004-0.006-0.007 c-0.004-0.005-0.009-0.011-0.014-0.017c-0.001-0.001-0.004-0.004-0.005-0.006c-0.005-0.006-0.009-0.011-0.014-0.017 c-0.002-0.003-0.003-0.004-0.006-0.007c-0.004-0.005-0.009-0.011-0.014-0.017c-0.001-0.001-0.004-0.004-0.005-0.006 c-0.005-0.006-0.009-0.011-0.014-0.017c-0.002-0.002-0.004-0.004-0.006-0.007c-0.004-0.005-0.009-0.011-0.014-0.017 c-0.002-0.002-0.003-0.003-0.005-0.006c-0.005-0.006-0.01-0.013-0.016-0.019c-0.001-0.002-0.002-0.002-0.003-0.004 c-0.02-0.024-0.039-0.047-0.058-0.071c-0.001,0-0.002-0.002-0.003-0.003c-0.006-0.007-0.011-0.014-0.017-0.02 c-0.002-0.003-0.002-0.003-0.005-0.006c-0.004-0.006-0.009-0.012-0.014-0.018c-0.002-0.002-0.004-0.004-0.006-0.006 c-0.004-0.006-0.009-0.011-0.014-0.017c-0.002-0.003-0.003-0.004-0.006-0.007c-0.004-0.006-0.009-0.011-0.014-0.017 c-0.001-0.001-0.003-0.004-0.005-0.006c-0.005-0.006-0.01-0.012-0.015-0.018c-0.001-0.002-0.003-0.004-0.005-0.006 c-0.005-0.006-0.01-0.012-0.015-0.019c-0.002-0.001-0.003-0.003-0.004-0.004c-0.006-0.007-0.012-0.014-0.017-0.021 c-0.001-0.001-0.002-0.001-0.003-0.002c-0.02-0.023-0.039-0.048-0.059-0.071c-0.001-0.001-0.001-0.001-0.002-0.002 c-0.006-0.007-0.011-0.014-0.017-0.021c-0.002-0.002-0.003-0.004-0.005-0.005c-0.005-0.006-0.01-0.012-0.015-0.019 c-0.002-0.001-0.003-0.003-0.005-0.005c-0.005-0.006-0.01-0.012-0.015-0.018c-0.001-0.001-0.003-0.004-0.005-0.006 c-0.005-0.006-0.01-0.012-0.015-0.017c-0.002-0.003-0.003-0.004-0.005-0.006c-0.005-0.006-0.01-0.012-0.015-0.017 c-0.001-0.002-0.003-0.004-0.005-0.006c-0.005-0.006-0.01-0.012-0.016-0.019c-0.001-0.002-0.002-0.002-0.003-0.004 c-0.007-0.007-0.013-0.015-0.02-0.022l0,0c-0.02-0.024-0.04-0.047-0.06-0.071c-0.001-0.001-0.002-0.002-0.002-0.002 c-0.006-0.007-0.012-0.014-0.018-0.021c-0.001-0.001-0.003-0.003-0.004-0.004c-0.005-0.006-0.01-0.012-0.016-0.019 c-0.001-0.002-0.002-0.003-0.004-0.005c-0.005-0.006-0.01-0.012-0.016-0.018c-0.001-0.002-0.003-0.004-0.005-0.006 c-0.005-0.006-0.01-0.012-0.015-0.018c-0.001-0.002-0.003-0.003-0.005-0.005c-0.005-0.006-0.01-0.012-0.016-0.019 c-0.001-0.001,0.185-0.003,0.183-0.004C67.826,59.014,68,59.007,68,59c0,0,0-0.001,0-0.002c0-0.031-0.24-0.062-0.267-0.093 c-0.001-0.001-0.095-0.002-0.097-0.003c-0.004-0.006-0.057-0.013-0.062-0.02c-0.001-0.002-0.026-0.004-0.028-0.006 c-0.005-0.006-0.021-0.012-0.026-0.018c-0.002-0.002-0.009-0.002-0.011-0.005c-0.005-0.006-0.013-0.012-0.018-0.018 c-0.002-0.002-0.006-0.003-0.007-0.005c-0.006-0.006-0.011-0.012-0.016-0.019c-0.002-0.001-0.004-0.002-0.005-0.004 c-0.006-0.006-0.012-0.013-0.017-0.019c-0.001-0.001-0.003,0.116-0.004,0.115C67.438,58.896,67.432,59,67.425,59 c-0.001,0-0.171,0-0.172,0C67.227,59,67,58.699,67,58.668v-0.001c0-0.007,0.158-0.015,0.152-0.021 c-0.001-0.002,0.084-0.001,0.082-0.003c-0.006-0.007,0.032-0.013,0.026-0.02c-0.001-0.001,0.019-0.003,0.018-0.003 c-0.005-0.006,0-0.013-0.006-0.019c-0.001-0.002,0.004-0.003,0.002-0.004c-0.006-0.007-0.009-0.013-0.015-0.02 c-0.001,0-0.121-0.001-0.122-0.002C67.132,58.566,67,58.559,67,58.552V58.55c0-0.039,0.052-0.55,0.018-0.55h0.059 c-0.006,0,0.018,0.202,0.012,0.195l-0.036,0.106C67.046,58.294,67,58.396,67,58.388v-0.001c0-0.007,0.035-0.014,0.029-0.021 c-0.001-0.001,0.021-0.172,0.021-0.173C67.045,58.185,67.05,58,67.044,58c-0.001,0,0.006,0,0.005,0 C67.001,58,67,58.233,67,58.18c0-0.001,0-0.001,0-0.002c0-0.007,0-0.014,0-0.021v-0.002c0-0.007-0.068-0.014-0.074-0.021 c-0.002,0,0.12-0.001,0.119-0.002C66.989,58.071,67,58.01,67,57.949c0-0.001,0,0,0-0.001c0-0.007-0.164-0.015-0.17-0.022l0,0 C66.219,57.261,65.436,56.619,64.78,55.999L64.78,55.999z M43.413,45.845l-1.173,10.006c3.923,0.464,7.625,1.775,11.005,3.824 l5.184-8.533c-0.004-0.002-0.007,0.006-0.011,0.003c-0.002-0.001-0.005,0.001-0.007,0c-0.006-0.004-0.012-0.005-0.018-0.008 c-0.002-0.001-0.005-0.001-0.007-0.003c-0.006-0.003-0.012-0.007-0.018-0.01c-0.002-0.001-0.005-0.003-0.007-0.004 c-0.006-0.004-0.013-0.007-0.019-0.011c-0.002-0.001-0.003-0.002-0.005-0.003c-0.007-0.004-0.013-0.008-0.021-0.012 c-0.001,0-0.002-0.001-0.002-0.001c-0.064-0.039-0.128-0.077-0.193-0.115l0,0c-0.008-0.005-0.015-0.009-0.023-0.014 l-0.001-0.001c-0.008-0.004-0.014-0.008-0.022-0.013c0,0-0.002,0.032-0.003,0.032C58.062,50.975,58.056,51,58.048,51 c-0.001,0-0.001,0-0.001,0C58.039,51,58,50.958,58,50.953c0,0,0-0.106,0-0.106C56,49.78,54.307,49,52.319,48 c0,0-0.001,0-0.001,0c-0.009,0-0.017,0-0.025,0c-0.001,0-0.001,0-0.001,0c-0.01,0-0.017,0-0.025,0c-0.001,0-0.002,0-0.002,0 C52.254,48,52,48.072,52,48.068v0.011C52,48.049,52.077,48,51.997,48c-0.001,0-0.002,0-0.003,0c-0.008,0-0.016,0.022-0.023,0.02 c-0.001-0.001-0.003,0.013-0.004,0.012c-0.008-0.003-0.015,0.002-0.022-0.001c-0.002,0-0.003,0.002-0.006,0.001 c-0.007-0.002-0.014-0.004-0.021-0.006c-0.002-0.001-0.005-0.001-0.007-0.001c-0.006-0.002-0.013-0.004-0.02-0.007 c-0.002-0.001-0.005-0.001-0.007-0.002c-0.007-0.002-0.014-0.005-0.021-0.008c-0.002,0-0.003-0.001-0.005-0.002 c-0.008-0.003-0.014-0.005-0.022-0.008c-0.001-0.001-0.003,0.029-0.004,0.028C51.778,48.007,51.725,48,51.673,48 c-0.001,0-0.002,0-0.003,0c-0.008,0-0.015-0.036-0.023-0.039c-0.001-0.001-0.003-0.017-0.004-0.017 c-0.008-0.003-0.014-0.013-0.022-0.016c-0.002-0.001-0.004-0.005-0.006-0.006c-0.006-0.002-0.014-0.007-0.021-0.009 c-0.002-0.001-0.004-0.002-0.006-0.003c-0.007-0.002-0.014-0.005-0.021-0.008c-0.002-0.001-0.005-0.002-0.007-0.003 c-0.007-0.003-0.014-0.005-0.02-0.007c-0.003-0.001-0.005-0.002-0.008-0.003c-0.007-0.002-0.014-0.005-0.021-0.007 c-0.002,0-0.005-0.001-0.007-0.002c-0.007-0.002-0.013-0.005-0.02-0.007c-0.003-0.001-0.005-0.001-0.008-0.002 c-0.006-0.002-0.013-0.005-0.02-0.007c-0.002,0-0.005,0.073-0.007,0.072C51.441,47.931,51.434,48,51.427,48 c-0.001,0-0.001,0-0.002,0c-0.034,0-0.068-0.099-0.102-0.11c-0.001,0-0.004-0.039-0.005-0.039 c-0.007-0.003-0.014-0.024-0.021-0.026c-0.002,0-0.004-0.011-0.007-0.012c-0.007-0.002-0.013-0.009-0.02-0.011 c-0.003-0.001-0.005-0.004-0.009-0.005c-0.005-0.002-0.012-0.005-0.018-0.007c-0.003-0.001-0.007-0.003-0.011-0.004 c-0.006-0.002-0.011-0.004-0.017-0.006c-0.004-0.001-0.008-0.003-0.012-0.004c-0.004-0.001-0.012-0.004-0.016-0.006 s-0.008-0.002-0.012-0.004c-0.005-0.002-0.011-0.004-0.017-0.006c-0.003-0.001-0.008-0.002-0.012-0.004 c-0.005-0.002-0.01-0.003-0.016-0.005c-0.004-0.001-0.009-0.003-0.013-0.004s-0.011-0.004-0.016-0.005 c-0.004-0.001-0.008-0.003-0.013-0.004s-0.011-0.004-0.015-0.005c-0.005-0.001-0.009-0.003-0.014-0.004 c-0.006-0.002-0.009,0.141-0.015,0.139C51.037,47.861,51.028,48,51.019,48h-0.001c-0.009,0-0.019-0.151-0.028-0.154 c-0.004-0.002-0.007-0.075-0.011-0.076c-0.006-0.002-0.011-0.04-0.017-0.042c-0.003-0.001-0.009-0.021-0.012-0.022 c-0.005-0.001-0.011-0.012-0.016-0.014c-0.004-0.001-0.009-0.008-0.013-0.009c-0.005-0.001-0.01-0.005-0.016-0.007 c-0.005-0.001-0.009-0.004-0.013-0.005c-0.005-0.002-0.01-0.004-0.015-0.006c-0.004-0.001-0.009-0.003-0.013-0.004 c-0.005-0.002-0.011-0.004-0.016-0.006c-0.004-0.001-0.008-0.002-0.013-0.004c-0.005-0.002-0.01-0.003-0.016-0.005 c-0.004-0.001-0.008-0.003-0.013-0.004c-0.005-0.002-0.011-0.003-0.017-0.005c-0.003-0.001-0.008-0.003-0.012-0.004 c-0.006-0.002-0.012-0.004-0.018-0.006c-0.004-0.001-0.006-0.002-0.011-0.003c-0.006-0.002-0.012-0.004-0.019-0.006 c-0.003-0.001-0.006-0.002-0.009-0.003c-0.007-0.002-0.015-0.004-0.022-0.007c-0.002-0.001-0.004-0.001-0.007-0.002 c-0.029-0.009-0.058-0.019-0.087-0.028c-0.001,0-0.004-0.001-0.005-0.002c-0.008-0.002-0.016-0.005-0.023-0.007 c-0.002-0.001-0.005-0.002-0.008-0.002c-0.007-0.002-0.014-0.005-0.021-0.007c-0.002-0.001-0.006-0.002-0.009-0.003 c-0.007-0.002-0.014-0.004-0.021-0.007c-0.003-0.001-0.005-0.001-0.009-0.003c-0.006-0.002-0.014-0.004-0.02-0.006 c-0.003-0.001-0.005-0.001-0.009-0.003c-0.007-0.002-0.014-0.004-0.021-0.006c-0.003-0.001-0.005-0.002-0.009-0.003 c-0.007-0.002-0.014-0.004-0.021-0.006c-0.002-0.001-0.006-0.002-0.008-0.003c-0.007-0.002-0.014-0.004-0.022-0.007 c-0.002,0-0.004-0.25-0.007-0.251C50.384,47.254,50.376,48,50.368,47c-0.002,0-0.002,0-0.004,0c-0.009,0-0.019,0-0.027,0h-0.002 c-0.04,0-0.079,0-0.119,0c-0.001,0-0.001,0-0.002,0c-0.009,0-0.019,0-0.027,0c-0.001,0-0.002,0-0.003,0 c-0.009,0-0.018,0.214-0.026,0.211c-0.001,0-0.002-0.102-0.004-0.103C50.146,47.106,50.137,47,50.128,47 c-0.001,0-0.002,0-0.003,0c-0.009,0-0.017,0-0.026,0c-0.001,0-0.003,0-0.004,0c-0.008,0-0.017,0-0.026,0 c-0.001,0-0.002,0-0.003,0c-0.009,0-0.018,0-0.027,0c-0.001,0-0.001,0-0.002,0C49.957,47,50,47.148,50,47.124v0.099 c0-0.004,0,0.043,0,0.04v-0.126C50,47.133,49.748,47,49.738,47h-0.001C47.696,47,45.583,46.101,43.413,45.845L43.413,45.845z"/></g><g display="inline"><g><polyline fill="none" stroke="#B3B3B3" stroke-miterlimit="10" stroke-width="10" points="123 72 123 84 111 84"/><line x1="96" x2="59" y1="84" y2="84" fill="none" stroke="#B3B3B3" stroke-dasharray="30 15" stroke-miterlimit="10" stroke-width="10"/><polyline fill="none" stroke="#B3B3B3" stroke-miterlimit="10" stroke-width="10" points="52 84 40 84 40 72"/><line x1="40" x2="40" y1="61" y2="32" fill="none" stroke="#B3B3B3" stroke-dasharray="23 12" stroke-miterlimit="10" stroke-width="10"/><polyline fill="none" stroke="#B3B3B3" stroke-miterlimit="10" stroke-width="10" points="40 26 40 14 52 14"/><line x1="67" x2="104" y1="14" y2="14" fill="none" stroke="#B3B3B3" stroke-dasharray="30 15" stroke-miterlimit="10" stroke-width="10"/><polyline fill="none" stroke="#B3B3B3" stroke-miterlimit="10" stroke-width="10" points="111 14 123 14 123 26"/><line x1="123" x2="123" y1="38" y2="66" fill="none" stroke="#B3B3B3" stroke-dasharray="23 12" stroke-miterlimit="10" stroke-width="10"/></g></g><g display="inline"><g><polyline fill="none" stroke="#B3B3B3" stroke-miterlimit="10" stroke-width="10" points="123 72 123 84 111 84"/><line x1="96" x2="59" y1="84" y2="84" fill="none" stroke="#B3B3B3" stroke-dasharray="30 15" stroke-miterlimit="10" stroke-width="10"/><polyline fill="none" stroke="#B3B3B3" stroke-miterlimit="10" stroke-width="10" points="52 84 40 84 40 72"/><line x1="40" x2="40" y1="61" y2="32" fill="none" stroke="#B3B3B3" stroke-dasharray="23 12" stroke-miterlimit="10" stroke-width="10"/><polyline fill="none" stroke="#B3B3B3" stroke-miterlimit="10" stroke-width="10" points="40 26 40 14 52 14"/><line x1="67" x2="104" y1="14" y2="14" fill="none" stroke="#B3B3B3" stroke-dasharray="30 15" stroke-miterlimit="10" stroke-width="10"/><polyline fill="none" stroke="#B3B3B3" stroke-miterlimit="10" stroke-width="10" points="111 14 123 14 123 26"/><line x1="123" x2="123" y1="38" y2="66" fill="none" stroke="#B3B3B3" stroke-dasharray="23 12" stroke-miterlimit="10" stroke-width="10"/></g></g><path fill="#FFF" d="M40,45.748V84h36.573c0,0,0.239-0.367,0.239-0.465C76.812,62.949,60,46.062,40,45.748z" display="inline"/></g><g id="STOP" display="none"><rect width="88" height="88" x="20" y="20" display="inline"/></g><g id="PLAY" display="none"><polygon points="33 108 33 20 107 65" display="inline"/></g><g id="NEXT" display="none"><polygon points="44 108 44 20 118 65" display="inline"/><rect width="23" height="88" x="10" y="20" display="inline"/></g><g id="PREV" display="none"><polygon points="84 20 84 108 10 63" display="inline"/><rect width="23" height="88" x="95" y="20" display="inline"/></g><g id="PLAY_BACK" display="none"><polygon points="95 20 95 108 21 63" display="inline"/></g><g id="LAST" display="none"><polygon points="16 108 16 20 90 65" display="inline"/><rect width="23" height="88" x="90" y="20" display="inline"/></g><g id="FIRST" display="none"><polygon points="113 20 113 108 39 63" display="inline"/><rect width="23" height="88" x="16" y="20" display="inline"/></g><g id="FAST_FW" display="none"><g display="inline"><polygon points="12 108 12 20 86 65"/><polygon points="49 108 49 20 123 65"/></g></g><g id="FAST_BK" display="none"><g display="inline"><polygon points="117 20 117 108 43 63"/><polygon points="80 20 80 108 6 63"/></g></g><g id="NEXT_KEY" display="none"><polygon points="0 108 0 20 74 65" display="inline"/><polygon fill="none" stroke="#000" stroke-miterlimit="10" stroke-width="12" points="121.335 64 98 110.669 74.666 64 98 17.331" display="inline"/></g><g id="PREV_KEY" display="none"><polygon points="128 20 128 108 54 63" display="inline"/><polygon fill="none" stroke="#000" stroke-miterlimit="10" stroke-width="12" points="7 64 30.335 17.331 53.669 64 30.335 110.669" display="inline"/></g><g id="LOOP" display="none"><polygon points="81 53.209 81 3.028 123.199 28.69" display="inline"/><polygon points="47 75.789 47 125.971 4.8 100.31" display="inline"/><g display="inline"><path d="M19.046,74.834C17.083,71.398,16,67.703,16,63.875C16,46.597,37.981,32,64,32c6.705,0,13.138,0.976,19,2.711V18.128 C76.921,16.734,70.532,16,64,16c-16.607,0-32.318,4.674-44.238,13.162C7.018,38.236,0,50.564,0,63.875 c0,6.688,1.774,13.127,5.154,19.03L19.046,74.834z"/><path d="M122.952,45.032l-13.891,8.07c1.896,3.382,2.938,7.014,2.938,10.773c0,17.278-21.981,31.875-48,31.875 c-6.706,0-13.138-0.976-19-2.711v16.583c6.079,1.395,12.468,2.128,19,2.128c16.607,0,32.317-4.675,44.238-13.162 C120.981,89.514,128,77.186,128,63.875C128,57.258,126.262,50.884,122.952,45.032z"/></g></g><g id="LOCK" display="none"><path d="M99,95H87V42.5c0-0.135-0.046-8.054-5.445-13.464C77.889,25.363,72.386,23.5,65.2,23.5 c-21.144,0-23.889,16.95-24.2,19.793V92H29l0.019-49.469C29.042,42.221,31.838,11.5,65.2,11.5 c10.573,0,18.979,3.095,24.987,9.199C99.102,29.758,99,42.076,99,42.596V95z" display="inline"/><path d="M19,53v64h90V53H19z M69,84.898V108H58V84.382c-3.583-2.076-6-5.943-6-10.382c0-6.627,5.373-12,12-12 c6.627,0,12,5.373,12,12C76,78.84,73.128,83.001,69,84.898z" display="inline"/></g><g id="UNLOCK" display="none"><path d="M99,83H87V30.5c0-0.135-0.046-8.054-5.445-13.464C77.889,13.363,72.386,11.5,65.2,11.5 c-21.144,0-23.889,16.95-24.2,19.793V47H29l0.019-16.469C29.042,30.221,31.838-0.5,65.2-0.5c10.573,0,18.979,3.095,24.987,9.199 C99.102,17.758,99,30.076,99,30.596V83z" display="inline"/><path d="M19,64v64h90V64H19z M69,95.898V119H58V95.382c-3.583-2.076-6-5.943-6-10.382c0-6.627,5.373-12,12-12 c6.627,0,12,5.373,12,12C76,89.84,73.128,94.001,69,95.898z" display="inline"/></g><g id="UNDO" display="none"><polygon points="63 63 99 42.081 99 20 25 63 99 108 99 84.892" display="inline"/></g><g id="UNDO_copy" display="none"><polygon fill="#999" points="63 63 99 42.081 99 20 25 63 99 108 99 84.892" display="inline"/></g><g id="REDO" display="none"><polygon points="65 65 29 85.919 29 108 103 65 29 20 29 43.108" display="inline"/></g><g id="REDO_copy" display="none"><polygon fill="#999" points="65 65 29 85.919 29 108 103 65 29 20 29 43.108" display="inline"/></g><g id="RESTORE" display="none"><polygon points="38.2 83.8 21.465 55 3.8 55 38.2 114.199 74.199 55 55.713 55" display="inline"/><line x1="38" x2="38" y1="52" y2="23" fill="none" stroke="#000" stroke-linecap="round" stroke-miterlimit="10" stroke-width="18" display="inline"/><line x1="38" x2="109" y1="23" y2="23" fill="none" stroke="#000" stroke-linecap="round" stroke-miterlimit="10" stroke-width="18" display="inline"/><line x1="110" x2="110" y1="24" y2="99" fill="none" stroke="#000" stroke-linecap="round" stroke-miterlimit="10" stroke-width="18" display="inline"/><line x1="109" x2="84" y1="99" y2="99" fill="none" stroke="#000" stroke-linecap="round" stroke-miterlimit="10" stroke-width="18" display="inline"/></g><g id="RESTORE_copy" display="none"><polygon fill="#999" stroke="#999" stroke-miterlimit="10" points="38.2 84.3 21.465 55.5 3.8 55.5 38.2 114.699 74.199 55.5 55.713 55.5" display="inline"/><line x1="38" x2="38" y1="52" y2="23" fill="#999" stroke="#999" stroke-linecap="round" stroke-miterlimit="10" stroke-width="18" display="inline"/><line x1="38" x2="109" y1="23" y2="23" fill="#999" stroke="#999" stroke-linecap="round" stroke-miterlimit="10" stroke-width="18" display="inline"/><line x1="110" x2="110" y1="24" y2="99" fill="#999" stroke="#999" stroke-linecap="round" stroke-miterlimit="10" stroke-width="18" display="inline"/><line x1="109" x2="84" y1="99" y2="99" fill="#999" stroke="#999" stroke-linecap="round" stroke-miterlimit="10" stroke-width="18" display="inline"/></g><g id="CLEAR" display="none"><polygon fill="#999" points="0 0 0 37 16.605 37 7.683 28.119 28 7.707 57.432 37 70.488 37 99.812 7.539 120.225 27.857 111.124 37 128 37 128 0" display="inline"/><polygon fill="#999" points="111.684 91 120.393 99.668 100.074 120.079 70.859 91 57.375 91 28.265 120.248 7.851 99.931 16.74 91 0 91 0 128 128 128 128 91" display="inline"/><g display="inline"><polygon fill="#999" points="43.672 63.942 24.642 45 0 45 0 82 25.699 82"/><polygon fill="#999" points="103.161 45 84.402 63.847 102.642 82 128 82 128 45"/></g></g></g></switch></svg>