<svg xmlns="http://www.w3.org/2000/svg" xmlns:xlink="http://www.w3.org/1999/xlink" width="128" height="128" version="1.1" xml:space="preserve" style="fill-rule:evenodd;clip-rule:evenodd;stroke-linejoin:round;stroke-miterlimit:1.41421"><g><g id="Ot BackDrop"><g><rect width="122" height="122" x="2.5" y="3.5" style="fill:#666;fill-rule:nonzero"/></g><g><path d="M0,128L127.863,128L127.863,0L0,0L0,128ZM5.03397,6.04724L121.821,6.04724L121.821,122.96L5.03397,122.96L5.03397,6.04724Z" style="fill:#000;fill-rule:nonzero"/></g><g><rect width="122" height="29" x="2.5" y="0" style="fill:#8c8c8c;fill-rule:nonzero"/></g><g><path d="M0,35L127.863,35L127.863,0L0,0L0,35ZM5.03397,6L121.821,6L121.821,28.999L5.03397,28.999L5.03397,6Z" style="fill:#080808;fill-rule:nonzero"/></g><g><path d="M99.33,128L128,100.526L128,128L99.33,128Z" style="fill:#8c8c8c;fill-rule:nonzero"/></g><g><path d="M89.72,128L128,128L128,91.666L89.72,128ZM122,105.387L122,123L103.993,123L122,105.387Z" style="fill:#080808;fill-rule:nonzero"/></g><g><rect width="35" height="6" x="46" y="14.583" style="fill:#000"/></g></g></g></svg>